<mxfile host="app.diagrams.net" agent="Mozilla/5.0 (X11; Linux x86_64; rv:139.0) Gecko/20100101 Firefox/139.0" version="27.1.4">
  <diagram name="Page-1" id="Xoh1EbPwN1k0oxkcW_zj">
    <mxGraphModel dx="1685" dy="1800" grid="1" gridSize="10" guides="1" tooltips="1" connect="1" arrows="1" fold="1" page="1" pageScale="1" pageWidth="850" pageHeight="1100" math="1" shadow="0">
      <root>
        <mxCell id="0" />
        <mxCell id="1" parent="0" />
        <mxCell id="71T8n86O5jPkXO_XVHl_-20" style="edgeStyle=orthogonalEdgeStyle;rounded=0;orthogonalLoop=1;jettySize=auto;html=1;fontFamily=Latin Modern Roman;fontSize=14;fontColor=default;" edge="1" parent="1">
          <mxGeometry relative="1" as="geometry">
            <mxPoint x="630" y="460" as="sourcePoint" />
            <mxPoint x="630" y="540" as="targetPoint" />
          </mxGeometry>
        </mxCell>
        <mxCell id="71T8n86O5jPkXO_XVHl_-45" value="" style="rounded=1;whiteSpace=wrap;html=1;" vertex="1" parent="1">
          <mxGeometry x="500" y="850" width="280" height="80" as="geometry" />
        </mxCell>
        <mxCell id="71T8n86O5jPkXO_XVHl_-39" value="" style="rounded=1;whiteSpace=wrap;html=1;" vertex="1" parent="1">
          <mxGeometry x="500" y="710" width="280" height="80" as="geometry" />
        </mxCell>
        <mxCell id="71T8n86O5jPkXO_XVHl_-22" style="edgeStyle=orthogonalEdgeStyle;rounded=0;orthogonalLoop=1;jettySize=auto;html=1;fontFamily=Latin Modern Roman;fontSize=14;fontColor=default;" edge="1" parent="1">
          <mxGeometry relative="1" as="geometry">
            <mxPoint x="650" y="460" as="sourcePoint" />
            <mxPoint x="650" y="540" as="targetPoint" />
          </mxGeometry>
        </mxCell>
        <mxCell id="71T8n86O5jPkXO_XVHl_-18" style="edgeStyle=orthogonalEdgeStyle;rounded=0;orthogonalLoop=1;jettySize=auto;html=1;fontFamily=Latin Modern Roman;fontSize=14;fontColor=default;" edge="1" parent="1">
          <mxGeometry relative="1" as="geometry">
            <mxPoint x="630" y="320" as="sourcePoint" />
            <mxPoint x="630" y="400" as="targetPoint" />
          </mxGeometry>
        </mxCell>
        <mxCell id="71T8n86O5jPkXO_XVHl_-19" style="edgeStyle=orthogonalEdgeStyle;rounded=0;orthogonalLoop=1;jettySize=auto;html=1;fontFamily=Latin Modern Roman;fontSize=14;fontColor=default;" edge="1" parent="1">
          <mxGeometry relative="1" as="geometry">
            <mxPoint x="650" y="320" as="sourcePoint" />
            <mxPoint x="650" y="400" as="targetPoint" />
          </mxGeometry>
        </mxCell>
        <mxCell id="71T8n86O5jPkXO_XVHl_-9" value="" style="rounded=1;whiteSpace=wrap;html=1;" vertex="1" parent="1">
          <mxGeometry x="500" y="260" width="280" height="80" as="geometry" />
        </mxCell>
        <mxCell id="71T8n86O5jPkXO_XVHl_-4" value="" style="rounded=1;whiteSpace=wrap;html=1;" vertex="1" parent="1">
          <mxGeometry x="500" y="120" width="280" height="80" as="geometry" />
        </mxCell>
        <mxCell id="71T8n86O5jPkXO_XVHl_-1" value="&lt;div&gt;&lt;font&gt;Benchmark&lt;/font&gt;&lt;/div&gt;&lt;div&gt;&lt;font&gt;Binary&lt;/font&gt;&lt;/div&gt;" style="text;html=1;align=center;verticalAlign=middle;whiteSpace=wrap;rounded=0;fontFamily=Latin Modern Roman;fontSize=14;" vertex="1" parent="1">
          <mxGeometry x="580" y="60" width="120" height="40" as="geometry" />
        </mxCell>
        <mxCell id="71T8n86O5jPkXO_XVHl_-2" value="" style="shape=image;verticalLabelPosition=bottom;labelBackgroundColor=default;verticalAlign=top;aspect=fixed;imageAspect=0;editableCssRules=.*;image=data:image/svg+xml,PHN2ZyB4bWxucz0iaHR0cDovL3d3dy53My5vcmcvMjAwMC9zdmciIHZpZXdCb3g9Ii0wLjAwMDAwMzgxNDY5NzI2NTYyNSAwIDIwMi44MDU4NjI0MjY3NTc4IDIyOC43NTQ2Mzg2NzE4NzUiIGhlaWdodD0iMjI4Ljc1NDYzODY3MTg3NSIgd2lkdGg9IjIwMi44MDU4NjI0MjY3NTc4IiB4bWw6c3BhY2U9InByZXNlcnZlIiBpZD0ic3ZnMiIgdmVyc2lvbj0iMS4xIj48bWV0YWRhdGEgaWQ9Im1ldGFkYXRhOCI+aW1hZ2Uvc3ZnK3htbDwvbWV0YWRhdGE+PGRlZnMgaWQ9ImRlZnM2Ij48Y2xpcFBhdGggaWQ9ImNsaXBQYXRoMTAwIiBjbGlwUGF0aFVuaXRzPSJ1c2VyU3BhY2VPblVzZSI+PHBhdGggaWQ9InBhdGg5OCIgZD0ibSAxMTguOTc4LDY2OS4wMTkgYyAtMTIuNjk1LC0xMi42ODkgLTEyLjY5NSwtMzMuMjc2IDAsLTQ1Ljk3NiB2IDAgYyA5LjgzNiwtOS44MjkgMjQuMzk2LC0xMi4wMDggMzYuMzYxLC02LjYgdiAwIC0xMS41MjQgaCAtMzUuMTkgbCAtOS41ODEsLTkuNTY3IGggNTQuMzM4IHYgNDIuNjY4IGwgLTguMjExLC04LjIxIGggLTMxLjAyNyBsIDM5LjI0MSwzOS4yNDQgYyAtNi4zNDMsNi4zMjEgLTE0LjY0OCw5LjQ4MiAtMjIuOTUxLDkuNDgzIHYgMCBjIC04LjMxOSwwIC0xNi42MzUsLTMuMTcyIC0yMi45OCwtOS41MTgiLz48L2NsaXBQYXRoPjxyYWRpYWxHcmFkaWVudCBpZD0icmFkaWFsR3JhZGllbnQxMTAiIHNwcmVhZE1ldGhvZD0icGFkIiBncmFkaWVudFRyYW5zZm9ybT0ibWF0cml4KDM1LjM0NTcxOCwwLDAsLTM1LjM0NTcxOCwxMzcuMTgzMTEsNjM2Ljk0NDM0KSIgZ3JhZGllbnRVbml0cz0idXNlclNwYWNlT25Vc2UiIHI9IjEiIGN5PSIwIiBjeD0iMCIgZnk9IjAiIGZ4PSIwIj48c3RvcCBpZD0ic3RvcDEwNiIgb2Zmc2V0PSIwIiBzdHlsZT0ic3RvcC1vcGFjaXR5OjE7c3RvcC1jb2xvcjojOTM5NTk4Ii8+PHN0b3AgaWQ9InN0b3AxMDgiIG9mZnNldD0iMSIgc3R5bGU9InN0b3Atb3BhY2l0eToxO3N0b3AtY29sb3I6Izc3Nzg3YiIvPjwvcmFkaWFsR3JhZGllbnQ+PGNsaXBQYXRoIGlkPSJjbGlwUGF0aDEyMCIgY2xpcFBhdGhVbml0cz0idXNlclNwYWNlT25Vc2UiPjxwYXRoIGlkPSJwYXRoMTE4IiBkPSJtIDE2NC45NTcsNzExLjcxMyB2IC00Mi42MTUgbCA4LjE2NCw4LjE3NCBoIDMxLjAyOCBsIC0zOS4yMjcsLTM5LjIyNiBjIDEyLjY5OCwtMTIuNjkzIDMzLjI3LC0xMi42ODIgNDUuOTYsMCB2IDAgYyAxMi42OTcsMTIuNjk3IDEyLjY5NywzMy4yODUgMCw0NS45NzQgdiAwIGMgLTkuODM2LDkuODMyIC0yNC4zOTksMTIuMDE5IC0zNi4zNjIsNi42MSB2IDAgMTEuNTE3IGggMzUuMjU3IGwgOS41MTUsOS41NjYgeiIvPjwvY2xpcFBhdGg+PHJhZGlhbEdyYWRpZW50IGlkPSJyYWRpYWxHcmFkaWVudDEzMCIgc3ByZWFkTWV0aG9kPSJwYWQiIGdyYWRpZW50VHJhbnNmb3JtPSJtYXRyaXgoMzUuMzUxMjExLDAsMCwtMzUuMzUxMjExLDE5Mi42NjM1Nyw2NzAuMTIxNTgpIiBncmFkaWVudFVuaXRzPSJ1c2VyU3BhY2VPblVzZSIgcj0iMSIgY3k9IjAiIGN4PSIwIiBmeT0iMCIgZng9IjAiPjxzdG9wIGlkPSJzdG9wMTI2IiBvZmZzZXQ9IjAiIHN0eWxlPSJzdG9wLW9wYWNpdHk6MTtzdG9wLWNvbG9yOiMzNWFhZDEiLz48c3RvcCBpZD0ic3RvcDEyOCIgb2Zmc2V0PSIxIiBzdHlsZT0ic3RvcC1vcGFjaXR5OjE7c3RvcC1jb2xvcjojMDA4ZWIwIi8+PC9yYWRpYWxHcmFkaWVudD48Y2xpcFBhdGggaWQ9ImNsaXBQYXRoMSIgY2xpcFBhdGhVbml0cz0idXNlclNwYWNlT25Vc2UiPjxwYXRoIHN0eWxlPSJzdHJva2Utd2lkdGg6MC45OTk5OTgiIGlkPSJwYXRoMSIgZD0ibSAtMTk0LjI4MzIsMjEyLjE5NjMgaCA2MTIgdiAtNzkyIGggLTYxMiB6Ii8+PC9jbGlwUGF0aD48Y2xpcFBhdGggaWQ9ImNsaXBQYXRoMiIgY2xpcFBhdGhVbml0cz0idXNlclNwYWNlT25Vc2UiPjxwYXRoIHN0eWxlPSJzdHJva2Utd2lkdGg6MC45OTk5OTgiIGlkPSJwYXRoMiIgZD0ibSAtMTI3LjE4ODUsMjE5Ljk3NjEgaCA2MTIgdiAtNzkyIGggLTYxMiB6Ii8+PC9jbGlwUGF0aD48Y2xpcFBhdGggaWQ9ImNsaXBQYXRoMyIgY2xpcFBhdGhVbml0cz0idXNlclNwYWNlT25Vc2UiPjxwYXRoIHN0eWxlPSJzdHJva2Utd2lkdGg6MC45OTk5OTgiIGlkPSJwYXRoMyIgZD0ibSAtMjE5LjExMTgsMjE4Ljc3NzggaCA2MTIgdiAtNzkyIGggLTYxMiB6Ii8+PC9jbGlwUGF0aD48Y2xpcFBhdGggaWQ9ImNsaXBQYXRoNCIgY2xpcFBhdGhVbml0cz0idXNlclNwYWNlT25Vc2UiPjxwYXRoIHN0eWxlPSJzdHJva2Utd2lkdGg6MC45OTk5OTgiIGlkPSJwYXRoNCIgZD0ibSAtMTEwLjc1MzksMjM2LjYwNSBoIDYxMiB2IC03OTIgaCAtNjEyIHoiLz48L2NsaXBQYXRoPjwvZGVmcz48ZyB0cmFuc2Zvcm09Im1hdHJpeCgxLjMzMzMzMzMsMCwwLC0xLjMzMzMzMzMsLTExOC41MDQ4Niw5NDguOTUwNjQpIiBpZD0iZzEwIj48ZyBpZD0iZzU0Ij48ZyBjbGlwLXBhdGg9InVybCgjY2xpcFBhdGg0KSIgdHJhbnNmb3JtPSJ0cmFuc2xhdGUoMTEwLjc1MzksNTU1LjM5NSkiIGlkPSJnNzgiPjxwYXRoIGlkPSJwYXRoODAiIHN0eWxlPSJmaWxsOiM3Nzc4N2I7ZmlsbC1vcGFjaXR5OjE7ZmlsbC1ydWxlOm5vbnplcm87c3Ryb2tlOm5vbmUiIGQ9Im0gMCwwIGMgLTQuMjg1LC0zLjA4IC0xMC4yOCwtMi42OTkgLTE0LjEzMiwxLjE1NSAtNC4yODUsNC4yODcgLTQuMjg1LDExLjIzOCAwLDE1LjUxNSA0LjI4MSw0LjI4OSAxMS4yMjIsNC4yODkgMTUuNTEzLDAgbCAzLjE5NCwzLjIwMiBjIC02LjA0Niw2LjA1NSAtMTUuODU5LDYuMDU1IC0yMS45MTUsMCAtNi4wNDcsLTYuMDUzIC02LjA0NywtMTUuODY1IDAsLTIxLjkxOCA0LjY5NSwtNC42ODcgMTEuNjMyLC01LjcyOCAxNy4zNCwtMy4xNSB2IC01LjQ5IGggLTE2Ljc4MSBsIC00LjU2MiwtNC41NjIgSCA0LjU2MSBWIDUuMTA3IGMgMCwwIC0xLjE5OSwtMS45NjQgLTMuMTgsLTMuOTUyIEMgMC45NSwwLjcyNSAwLjQ4LDAuMzQ3IDAsMCIvPjwvZz48ZyBjbGlwLXBhdGg9InVybCgjY2xpcFBhdGgzKSIgdHJhbnNmb3JtPSJ0cmFuc2xhdGUoMjE5LjExMTgsNTczLjIyMjIpIiBpZD0iZzgyIj48cGF0aCBpZD0icGF0aDg0IiBzdHlsZT0iZmlsbDojMDA4ZWIwO2ZpbGwtb3BhY2l0eToxO2ZpbGwtcnVsZTpub256ZXJvO3N0cm9rZTpub25lIiBkPSJtIDAsMCBjIDQuMjgsMy4wNjggMTAuMjgyLDIuNjg4IDE0LjEzLC0xLjE1NyA0LjI5MSwtNC4yODkgNC4yOTEsLTExLjIzNSAwLC0xNS41MjIgLTQuMjc5LC00LjI4MSAtMTEuMjI4LC00LjI4MSAtMTUuNTE0LDAgbCAtMy4xOTksLTMuMTk0IGMgNi4wNTYsLTYuMDU2IDE1Ljg2OSwtNi4wNTYgMjEuOTE2LDAgNi4wNTEsNi4wNDQgNi4wNTEsMTUuODU0IDAsMjEuOTExIEMgMTIuNjQzLDYuNzIyIDUuNzAzLDcuNzY2IDAsNS4xODYgdiA1LjQ5IGggMTYuNzc1IGwgNC41NjMsNC41NjIgSCAtNC41NiBWIDIuMDU0IC01LjEyMSBjIDAsMCAxLjE4OCwxLjk3OSAzLjE3NiwzLjk2NCBDIC0wLjk0OSwtMC43MzQgLTAuNDg2LC0wLjM1NCAwLDAiLz48L2c+PGcgY2xpcC1wYXRoPSJ1cmwoI2NsaXBQYXRoMikiIHRyYW5zZm9ybT0idHJhbnNsYXRlKDEyNy4xODg1LDU3Mi4wMjM5KSIgaWQ9Imc4NiI+PHBhdGggaWQ9InBhdGg4OCIgc3R5bGU9ImZpbGw6Izc3Nzg3YjtmaWxsLW9wYWNpdHk6MTtmaWxsLXJ1bGU6bm9uemVybztzdHJva2U6bm9uZSIgZD0ibSAwLDAgYyA0LjI1OCw0LjI0OCAxMS4xNyw0LjI0OCAxNS40MzUsMCAwLjkyOSwtMC45MzIgMS42MzMsLTEuOTk1IDIuMTU4LC0zLjEzOCBIIC0yLjE3NCBDIC0xLjY0OCwtMS45OTUgLTAuOTMxLC0wLjkzMiAwLDAgbSAwLC0xNS40MzggYyAtMi4xMzMsMi4xMzUgLTMuMTk3LDQuOTIzIC0zLjE5Nyw3LjcxOSBoIDI2LjQwNiBjIDAsMS41NDYgLTAuMjM0LDMuMDkxIC0wLjY5OCw0LjU4MSAtMC43MTMsMi4zMjkgLTEuOTkyLDQuNTI4IC0zLjgzOCw2LjM4MSAtNi4wNTIsNi4wNTUgLTE1Ljg2Myw2LjA1NSAtMjEuOTIxLDAgLTYuMDQ4LC02LjA2MyAtNi4wNDgsLTE1Ljg3MyAwLC0yMS45MTggNi4wNTgsLTYuMDU1IDE1Ljg2OSwtNi4wNTUgMjEuOTIxLDAgbCAtMy4yMzgsMy4yMzcgQyAxMS4xNywtMTkuNjk5IDQuMjU4LC0xOS42OTkgMCwtMTUuNDM4Ii8+PC9nPjxnIGNsaXAtcGF0aD0idXJsKCNjbGlwUGF0aDEpIiB0cmFuc2Zvcm09InRyYW5zbGF0ZSgxOTQuMjgzMiw1NzkuODAzNykiIGlkPSJnOTAiPjxwYXRoIGlkPSJwYXRoOTIiIHN0eWxlPSJmaWxsOiMwMDhlYjA7ZmlsbC1vcGFjaXR5OjE7ZmlsbC1ydWxlOm5vbnplcm87c3Ryb2tlOm5vbmUiIGQ9Ik0gMCwwIEMgLTUuNTk1LDAgLTEwLjQ3OSwtMi45NzQgLTEzLjIxMSwtNy40MTYgLTE1LjkzMiwtMi45NzQgLTIwLjgyLDAgLTI2LjQxNSwwIGMgLTMuMTg5LDAgLTYuMTQ4LC0wLjk3MiAtOC42MTQsLTIuNjIzIC0xLjg2LC0xLjI0MiAtMy40MTksLTIuODg1IC00LjU4NCwtNC43OTMgdiAtMjMuMDc1IGggNC41ODQgdiAyMS42NjUgYyAxLjk5OSwyLjU3NiA1LjEwOSw0LjIzNiA4LjYxNCw0LjIzNiA2LjAzLDAgMTAuOTEsLTQuODc5IDEwLjkxLC0xMC45MDkgdiAtMTQuOTkyIGggNC41OTIgdiAxNC45OTIgYyAwLDYuMDMgNC44ODgsMTAuOTA5IDEwLjkxMywxMC45MDkgNi4wMjQsMCAxMC45MDgsLTQuODc5IDEwLjkwOCwtMTAuOTA5IHYgLTE0Ljk5MiBoIDQuNTkxIHYgMTQuOTkyIEMgMTUuNDk5LC02LjkzNiA4LjU1NywwIDAsMCIvPjwvZz48L2c+PGcgaWQ9Imc5NCI+PGcgY2xpcC1wYXRoPSJ1cmwoI2NsaXBQYXRoMTAwKSIgaWQ9Imc5NiI+PGcgaWQ9ImcxMDIiPjxnIGlkPSJnMTA0Ij48cGF0aCBpZD0icGF0aDExMiIgc3R5bGU9ImZpbGw6dXJsKCNyYWRpYWxHcmFkaWVudDExMCk7c3Ryb2tlOm5vbmUiIGQ9Im0gMTE4Ljk3OCw2NjkuMDE5IGMgLTEyLjY5NSwtMTIuNjg5IC0xMi42OTUsLTMzLjI3NiAwLC00NS45NzYgdiAwIGMgOS44MzYsLTkuODI5IDI0LjM5NiwtMTIuMDA4IDM2LjM2MSwtNi42IHYgMCAtMTEuNTI0IGggLTM1LjE5IGwgLTkuNTgxLC05LjU2NyBoIDU0LjMzOCB2IDQyLjY2OCBsIC04LjIxMSwtOC4yMSBoIC0zMS4wMjcgbCAzOS4yNDEsMzkuMjQ0IGMgLTYuMzQzLDYuMzIxIC0xNC42NDgsOS40ODIgLTIyLjk1MSw5LjQ4MyB2IDAgYyAtOC4zMTksMCAtMTYuNjM1LC0zLjE3MiAtMjIuOTgsLTkuNTE4Ii8+PC9nPjwvZz48L2c+PC9nPjxnIGlkPSJnMTE0Ij48ZyBjbGlwLXBhdGg9InVybCgjY2xpcFBhdGgxMjApIiBpZD0iZzExNiI+PGcgaWQ9ImcxMjIiPjxnIGlkPSJnMTI0Ij48cGF0aCBpZD0icGF0aDEzMiIgc3R5bGU9ImZpbGw6dXJsKCNyYWRpYWxHcmFkaWVudDEzMCk7c3Ryb2tlOm5vbmUiIGQ9Im0gMTY0Ljk1Nyw3MTEuNzEzIHYgLTQyLjYxNSBsIDguMTY0LDguMTc0IGggMzEuMDI4IGwgLTM5LjIyNywtMzkuMjI2IGMgMTIuNjk4LC0xMi42OTMgMzMuMjcsLTEyLjY4MiA0NS45NiwwIHYgMCBjIDEyLjY5NywxMi42OTcgMTIuNjk3LDMzLjI4NSAwLDQ1Ljk3NCB2IDAgYyAtOS44MzYsOS44MzIgLTI0LjM5OSwxMi4wMTkgLTM2LjM2Miw2LjYxIHYgMCAxMS41MTcgaCAzNS4yNTcgbCA5LjUxNSw5LjU2NiB6Ii8+PC9nPjwvZz48L2c+PC9nPjwvZz48L3N2Zz4=;" vertex="1" parent="1">
          <mxGeometry x="510" y="130" width="53.19" height="60" as="geometry" />
        </mxCell>
        <mxCell id="71T8n86O5jPkXO_XVHl_-7" value="&lt;div&gt;&lt;font face=&quot;Latin Modern Roman&quot; style=&quot;font-size: 14px;&quot;&gt;BBV array of&lt;/font&gt;&lt;/div&gt;&lt;div&gt;&lt;font face=&quot;Latin Modern Roman&quot; style=&quot;font-size: 14px;&quot;&gt;interval size&amp;nbsp;&lt;i&gt;N&lt;/i&gt;&lt;/font&gt;&lt;/div&gt;" style="edgeStyle=orthogonalEdgeStyle;rounded=0;orthogonalLoop=1;jettySize=auto;html=1;labelBackgroundColor=none;" edge="1" parent="1" source="71T8n86O5jPkXO_XVHl_-4" target="71T8n86O5jPkXO_XVHl_-9">
          <mxGeometry y="60" relative="1" as="geometry">
            <mxPoint as="offset" />
          </mxGeometry>
        </mxCell>
        <mxCell id="71T8n86O5jPkXO_XVHl_-3" value="$$\begin{aligned}&amp;amp;\textnormal{Profiling} \\ &amp;amp;\texttt{--simpoint-profile}\\ &amp;amp;\texttt{--simpoint-interval }N \\ &amp;amp;\texttt{--cpu-type=AtomicSimpleCPU} \end{aligned}$$" style="text;html=1;align=center;verticalAlign=middle;whiteSpace=wrap;rounded=0;" vertex="1" parent="1">
          <mxGeometry x="580" y="120" width="200" height="80" as="geometry" />
        </mxCell>
        <mxCell id="71T8n86O5jPkXO_XVHl_-6" style="edgeStyle=orthogonalEdgeStyle;rounded=0;orthogonalLoop=1;jettySize=auto;html=1;" edge="1" parent="1" source="71T8n86O5jPkXO_XVHl_-1" target="71T8n86O5jPkXO_XVHl_-4">
          <mxGeometry relative="1" as="geometry" />
        </mxCell>
        <mxCell id="71T8n86O5jPkXO_XVHl_-16" value="&lt;div&gt;BBV arrays of&lt;/div&gt;&lt;div&gt;interval size&lt;/div&gt;&lt;div&gt;&lt;i&gt;N&lt;/i&gt;, 2&lt;i&gt;N&lt;/i&gt;, ..., &lt;i&gt;kN&lt;/i&gt;&lt;/div&gt;" style="edgeStyle=orthogonalEdgeStyle;rounded=0;orthogonalLoop=1;jettySize=auto;html=1;fontFamily=Latin Modern Roman;fontSize=14;fontColor=default;labelBackgroundColor=none;" edge="1" parent="1">
          <mxGeometry y="60" relative="1" as="geometry">
            <mxPoint x="640" y="340" as="sourcePoint" />
            <mxPoint x="640" y="400" as="targetPoint" />
            <mxPoint as="offset" />
          </mxGeometry>
        </mxCell>
        <mxCell id="71T8n86O5jPkXO_XVHl_-11" value="&lt;div align=&quot;left&quot;&gt;&lt;font style=&quot;font-size: 14px;&quot; face=&quot;Latin Modern Roman&quot;&gt;Python script that scales a BBV array of size&amp;nbsp;&lt;i&gt;N&lt;/i&gt;&amp;nbsp;to size:&lt;/font&gt;&lt;/div&gt;&lt;div align=&quot;center&quot;&gt;&lt;font style=&quot;font-size: 14px;&quot; face=&quot;Latin Modern Roman&quot;&gt;2&lt;i&gt;N&lt;/i&gt;, 3&lt;i&gt;N&lt;/i&gt;, ...,&amp;nbsp;&lt;i&gt;kN&lt;/i&gt;&lt;/font&gt;&lt;/div&gt;" style="text;html=1;align=left;verticalAlign=middle;whiteSpace=wrap;rounded=0;" vertex="1" parent="1">
          <mxGeometry x="580" y="260" width="200" height="80" as="geometry" />
        </mxCell>
        <mxCell id="71T8n86O5jPkXO_XVHl_-12" value="" style="rounded=1;whiteSpace=wrap;html=1;" vertex="1" parent="1">
          <mxGeometry x="500" y="400" width="280" height="80" as="geometry" />
        </mxCell>
        <mxCell id="71T8n86O5jPkXO_XVHl_-13" value="&lt;div&gt;SimPoint analysis on each BBV array to generate sampled intervals&lt;/div&gt;" style="text;html=1;align=left;verticalAlign=middle;whiteSpace=wrap;rounded=0;fontFamily=Latin Modern Roman;fontSize=14;" vertex="1" parent="1">
          <mxGeometry x="590" y="400" width="190" height="80" as="geometry" />
        </mxCell>
        <mxCell id="71T8n86O5jPkXO_XVHl_-15" value="" style="shape=image;verticalLabelPosition=bottom;labelBackgroundColor=default;verticalAlign=top;aspect=fixed;imageAspect=0;image=data:image/jpeg,/9j/4AAQSkZJRgABAQEASABIAAD//gAXQ3JlYXRlZCB3aXRoIFRoZSBHSU1Q/9sAQwABAQEBAQEBAQEBAQEBAQEBAQEBAQEBAQEBAQEBAQEBAQEBAQEBAQEBAQEBAQEBAQEBAQEBAQEBAQEBAQEBAQEB/9sAQwEBAQEBAQEBAQEBAQEBAQEBAQEBAQEBAQEBAQEBAQEBAQEBAQEBAQEBAQEBAQEBAQEBAQEBAQEBAQEBAQEBAQEB/8AAEQgAKACLAwEiAAIRAQMRAf/EAB0AAAEFAQEBAQAAAAAAAAAAAAAGBwgJCgsFAwT/xAA2EAABBAIBAwMCBAUBCQAAAAAEAgMFBgEHCAAJERIUIQoTFRYYMRciI0FRGSQzOVJxeIGRt//EABoBAAEFAQAAAAAAAAAAAAAAAAUAAQIEBgP/xAAzEQEAAgAEAwYDBgcAAAAAAAABAhEAAyExEkFRBBMyYXGBkbHwBSJCYqHxMzRSgsHR4f/aAAwDAQACEQMRAD8A20dHR0dY/Bafhfb5mOZv9XOEZId1OhhgivmFlcSdRiiiitLfJJJI2TuZpgcdhpKnX33nFJbaaaSpxxasJSnOc4x1m7uWgN667hMWW/6a2nSa7l1DGZ22UG016IS+660y2w5IysWII2+48+y0hlx5LqnHW0JRlS04zuB7vJ2q2PqAqjDbKvNb1TO3ntp2LXOhtw3MlIFP1ByQvg3Iitac2LYpdSXPy+PBWOQwiMsyG8uVmwlw9gQ8GqMwaPkC5L6P5kcIZPYHHrkBU7vrIbZSoWVnIaVcWdRtljViazL167VCeCcMql0ECkXCvwm310+QUMJLy0Z7sdErIiu6XschyMiKl9zl8Jzajrvu0XpgfnH3l6p8j/X1z6vnaT/4Xfby/wCy/jX/APJKp1YZ1QnxR566s4XduLs11TZVH2ta5Dk9ozilozWL+uIqkSgStk2HVVNZhYWwLtV/pxMSOel119EqgUyMYZEI90Uw6oVom6Xaex2dWayumzyana7iHRq3J2mSq1NTWXLYfHQ4iz5JqHZtFmq1fJOGCafISMTYg/dYYUyEsklwdh7P5kZccmmpZkyL1SVIeinxxey0jFFpjS+Vhvhx+oEd1TGVdsXuJYxjOc54P8qcJxj91K/gdePSnH+cqV4TjGPnOc+MfPSf073SeKW7uDdq7gtSmLYFoqkQWwJi2x8/Bx4mxIE7XRRYkpUj6yBOSYKbfMOsx+azDtzriZduw19WCh/xDwyxnJnlHReZ/ZB5m8mdXwN0r2vdocEOWs1TR78HXY2zFRQGo9iRSJQmPrFntoUe2+dHFe2HIlUSTeGMLKCFypvCpZcJxmMooQzYwlfKZOKxfOv3xLjjImEheF29THJFLp9tCZdLLrFhFFaTl10kiGkWR2285+HHHnBktoRnzjwtSsJz5x4z8487h/oq0LQb3I8LSpOcj8Qc4wrGcZ8fc5O/Pz/0z/5+P36pZ5ubI5KhUnssyOkbZtV7ZJHb4oma8PTj7FKTU3YxORO9IaKDaiQVFqnyHowKMhFRrwhqTYgZiLLHej0pYzrO7H7egaZ3A+82vSuKHWtfRsDwFl7uHRH4MTVlQ2n/AAy3jJb5i6gTFO4ggKlXtou3Af7QjyIaGeGkQYxaIMAFXRrtuaS7PmRpucV0uhhnRjT67nWkxRygjnRL0st6DG1fRo98alejqvPPc74vJ1X+obJOxf0u5n017HJ/8gymdM5dXYlVJNgxIYdzcPyBmy4xE42d+Tf4cKUpJ6bVmJViQ6nqNNgyMIifhVpno8mNTKxbsOQCU3NCPC4MCXFFrLZjiESDKm8hErNZCdw624sptjOXUgGMogyEHa9Omnrqab4v2deV+3X0+ePX6OofcOucGk+c9SvN40S1eHqzrzY9h1LZT7lVXak4zsCpDxpNngBATTHTy1QaJmLQXIIGxFvPmYHBNLeFOQKididybi9p7lfr7hpt+cterdwbbHcf1Ubd6qXE622K4lbrLEdVtkpfIqpM0YY1+GCQRZwUw5MER0OsJuUl4kQ5+7nxSjwvFHWUeZpe2+g29OeFxRq7K019dvjie/R0zgm6oEzdh+iEVu6t2iPoYOyHp96GDTSXKxIypkEGtiwJlVqck3ZiPPBzDZBTJIwKs9Y6Ypwc95juTXO3UnE2N2PZNqVLcT1I1HSYK/7H2BUdeE2GmVeAsUpLxMekmWRICOHSqCYYh0+JiBJA2NDLizDmmB5QJb0SMpJEFZVRWre1euFZS3obvteJqdHUZtC8pqbyHFr8nUaRtmuwVx15X9p0qx32k5rcDcKVZ2Ay4qSr8iiTkGySVBSMYaZFEJFk44WSAdOEYwU1hUmekiKJSaI4cbLNnUw3WxdmV7VtfctFsRNpiGiRhXFV2qW27SX3i3MtMYbgaXCT0463lz0/dIaj3GBkZy4StpvGFZQ+qOSmq9z2KaqtIkrE5P1+EBsEtE2XXmxqEePESZxMcBINs32qVnJYpJoJwyFg+5zh0V3C/RhPnL5PsN/aWrCf5kYypOc5znxnGM+M/wA3qx5x5z6fOM4xnOf8581z7p2LO8buQtz35Oaxvls1WXoKg1GYuFN/JDwFVlIbY99kz1z4tmulXkUCNBWSIIwRFBSysodfwprKh3MdN7X5GOc1uuVf5/5jGb9T5pA7eXdPPioS306u2mocCdU3GrV232iAqatlSg+79gwZFFqkjZZSHiy7kRETklPwsEktcjPor5kTECGSZIo7lW1V3dtmmdtLlZxi5uKmn6Yy1q0nhFRNstYe2TQd4ibEhX7XLanBsCXLjWdXp1GLcxLs6MkWhZki4WGBdanLI4JJ3B99LiHsHudc74DcfF+xVC4VKuw2teL9vkm2rpNhUgsRW39iM7otUtr6l3ivR+hjxMmQQ9zamiZ1qxsNx51SDYLjCzqZXOxry4eB2AePP66kwa3EATGr3AoXfLn6olyGj57f7UXxnSrR46r9KopVamY10KW/K3puQ7dXccRJPs4WfyJRMjIhmIMIQKdJRY02OiNujezWymKWZGbOTEUaNtHQPpxqH3klZfB36W9QjJZiKftvgjsK2Ljwiz0VijQWrKePMW+wLDafTC1mNeLYbNmpFTEewpasOE4y05hOnXnff4qg8MuTFmKkUsPO6R2PC1327D0kTJWqzVGXhKnGx4ATJRUgTJTx4DDbIrDy8NqdIUn7LDqk1j8BeblJ0Rwm4zaJvtI2TDbV0roPjnqVVEPGosLa9hWoQRGn5VrXcJZLpCS5zdYuVRmBrGxZgazJwIg7ZEhHtLyhKJcxnc947TMzTAmn5oaBtMJWD5e9yEtrEWpa1mbjGXOXiKXsmUXflO124tBUCaQfHDiyTATy4ocozLsiOlIvMcyUoHdrHLnOQ7suOZJtNNdKp57GLQ6S4i2QD7Fa+mKite8Fdi6f5ldwHUNexGjdr/f9HjefcTJurXilx+3bBWrrVRaFBHBrZimQXdhtMbgKQHlH4fD6s1WIO0oGZey/5HBmYlSPpVN8UmzgSkHetb8LO4FSbPV52MMhp6EdaD3pMVtk2IkRwjh0n1CXgJIRxwVCXxysOM5fwnK1W5M91HR66kRYXKhsduablI1qP10p3V+b/L1mSoxewRdgRsJnZaR10tmtjfdPknThyBpIgGNUJkghKEJLdfNjjtyGoe3uODkcfZ69t/T911wPYFy9HI13c5a9asYkC9WgSkHe3rIddpMG3jVN2Gi4nBL9lfOiI998xltTjubmy0llpeblSHe+HhG/NAt30Oba0SMSSLxMUCjh1qm7vlro458/c7kNtULjP2m4gSWu1Ugf9PaGqttiYycl4uMZtOd17ksJddtEZHmsjsWDNWstakioibGTIJiJWOU6xhrKUt2I/Taam2HvrhR32NLanMUFszaHHPStKo6kmNx+TrFOVjlcFHwypB9xpoFufeeTBvmuuobDakVEuKwhvPVZ/Iyldt3c20K9W4LYEnw4vNTOs+oL5rHWXHG5bQoUzcYHdGw4ivXOOtFp3+3LNuzFBMokfMjeFitycOeYK2KyWgEa4XsGas2hoTkJ3CeLWsdqzULZYrkTq3TLt7rIkPBO2snW+ueeklEu5EsgNyFh4mXtNOgCjR8INMYj1kCIkMOqwU2Wz5keyzqDGRw5iTjQ1mxn4ncpBrr0xXiPeEl8v0r2MXVs7s1nn6ecrjSsdrHI0LhQ/wASSuMChX876/US3T16nxUE6kSLi9vTTl29FkZW3X3WHoDLdoQY7BLzMJuq7eesL7x44GcVNP7pkW8bC1Px81tVr+QYay6zDS0DUwWpKJeksu5FIHqzbX4GqQQ8od1mLw/l9aFfcyi4fcnITW7mnYXcWi6kMq5WWmaqkNjxW2wZ+VfscpGlNkWB+ut68i/6Bz8UYW+E3KDtC5Iwwh77WE5whLhK8lZzlDfi9RWEi2VnVU5q1Erp6Zs9cqdKsVVuOsbQTKvKn3adYJ1Mw1amoSQYU0bkXAoxYqxFe5w6OEmk4kbiRZyz2VrU3hhGJp4ddbvXWtMWhrfU4eENtOmIJfTRzEUXxO5ajDSYBBSu4zyhnMDsljuv5hZ0fXhEHL4ZQ4pz8LmGByHYuQ9PtD2x31ivOpZcymSnPPiZxZ7hW/rFxQ3jI15yzGcV12WhnxMnFtbU1fbhNmO5iNhUrGXkyoB8blxDh4qcewn4RwqLmWX4w1xPU1NabsvFhvuzdX7C1RD6qtFN19Vr0KqCvod3CmI24HXOKAykhmq1hYxYZ9OkFOMuYMwpokZXhr1ZyuLnGWf5jx9Mg9kIgwOQ0Ds/XWurlDH3rZlaoMxU582KMItkfHiw+sHm3YcsksJMe2c88UIOF6FkkYcV6eknMc2efCQEziE3NPON7VXUNd8QiVEjyqI/21XTp5Yjb2njOdVI5M7+4z89hUWy58ZdIaqpeq+R7DJYwPJHUc7eNkSNXuZLhCHBy7ZCNAZgrURg1+ZyahtixtKmBipyySH78kkEx2i+cjBBYo78nqRMTFNOvtNvSMqdaa8gKNAQpSVlyBisKwMIPhwh7wrLbasYz4cnZW4rPuzjrpK4Qxdk1JNbR3nryizKKhbXWZ6IijNlSdNm48W1Ax0c4tBao/15Jbh2UqwpDeW1pRh1X5W7ry647axpWNvVvSuw6/BTmuKVZL1jbV8lbzL4t9zg6YzYyIqY1HHxjxYzs6xIHsl2FtGW2yM4NdU2hD3NzXvY9oIRAnB4BoWBG+WhKr02to0MTsIyiMmxBQNytaevq4fbt3Hx8pwH4UlxxgcgOnilx9DySEQyWykyN1PUo2SFy8wtxCSQZAQoE5jKsOimjPjPoQ8y4hMyekSxZq4I0kcWagW0qX/RZRJxzWM5Vnyr7aMO+nKnFZznGEpwpxzKl59Ti1KUsWHPustOf86Eq+fHn5x/fx8f+vjrjJ4pSk/iV9Lbr22x1j4Y+UYnwiGPrnGM/Gcecf4z1+MyPAkGHRTghDRnk5S8OWMySw6nPjyl1l1Cm3E58Y8pWnOPjHx8Y6OjpsNPwv1zMc0j6syVlaV3PqnG0+UkKpGmcR9UvlR9aNJggSHs7C3O1l18SLdFYecy0lLeXHG1LyjGEZz6cYxjMPi/3tKQ0JuttSiPz5ARiyTOEg59u4H5DTg3wNn2jrovlnCM+3ccY/3S1JydHWn7ID2bs6gvc5fL8pgdmqZkqXlzehjsMdqWBhZjto9vaclomLlJl3hxxxNclpGPENk3DCNXVk0ktcgS06Wsog194t8hTuXXSnXSFrU64peZ9Yo9Mw04ymp1pLTrjbrrWIOM+046yl1tp1xv23oW402+8htasZUhDzqU5xhxeMnR1nMxe8nq+OXN/qcX8o+6e36BWPpim1LDqCMVeue4bHSIh/8ABI77yBUse1SOl32/rSwkb/Z0s4zhvDH9LCft/wAvUD+6HWK5Dds/uBnxMBCxh0Twv5Ry0UZHRYIJUbKD6Ruix5IB8Zhp0OQYWy0tkwdbZLSmm1NuJyhOcHR0+UveR1fFDn+eJ8tMdEOGWn4X5mON+HLyEfKNTAxT6JQY1qRHP+6tRTR7BCSmy0urypWSEvow7h1Xlf3MYXnOf5sK3x/Slbo2nzLv3Ma+cnLtLbjt2jCOPknquw2tIbkjTJDZQXIKLu5cW/HCR+FE2SPgIoSSeOSYpxkNvDOWVKeU6dHWh+0P5bO8gDyO8joeWBuR/Fj9dMbJtoaj19uGvD1fYlVjLbCDSos0zHSfuMMtyYbRLIxqVjPju4fYbLIQ0rDmPTh3Oc4zlOOvJ1XofVOmGZtnWlHhqcixvgkzmIz3Tq5R+NaeZBcKdNJKcV7Voh9DSUqSnCXF48fOM4OjrM8TpG/u0tctGNYIcJxD5OnLSg+eE1sri9ozbloVb9h64grVYsRYkLiWPTINFZiAXSSQ4/LgJwmHGRiTz3m8OJcVhRb6fPpzhOHQqlKr9HrEVTapEsQlcgooaFhIoJC0ixUYEzgcMMRK1LWhgZhKGmk5XnOEITjKs585ydHS+vr4Hww0QuT5p5VphiIzhpxthLFH26K1DWArJEz49njpgZMql4KfGPxJtSTA65BYrZTchjJScpZyhLyvX6VfPqfS40Op7ErhVRvdYhLjVpNI2JSu2WIDmoWQ9oQwWLkyMkGSAn1DFijkj5eZc+w80281hDzbbiDo6WJ0dD6/Y+GGPb4YcTxnG3R+NOkGyWXEPDkI1bT0vMOtrwttxtaYfyh1tScKQ4n0qSvGFJ8KxjPUoxWsMjstYxnGG20IxjP74wnGMYxn+/8Ab98/Of3znOfOejo6WFj/2Q==;" vertex="1" parent="1">
          <mxGeometry x="510" y="430" width="69.51" height="20" as="geometry" />
        </mxCell>
        <mxCell id="71T8n86O5jPkXO_XVHl_-21" value="&lt;div&gt;Execution intervals&lt;/div&gt;&lt;div&gt;picked as&lt;/div&gt;&lt;div&gt;SimPoint samples&lt;/div&gt;" style="edgeStyle=orthogonalEdgeStyle;rounded=0;orthogonalLoop=1;jettySize=auto;html=1;fontFamily=Latin Modern Roman;fontSize=14;fontColor=default;labelBackgroundColor=none;" edge="1" parent="1" source="71T8n86O5jPkXO_XVHl_-12" target="71T8n86O5jPkXO_XVHl_-25">
          <mxGeometry y="80" relative="1" as="geometry">
            <mxPoint x="640" y="480" as="sourcePoint" />
            <mxPoint x="640" y="560" as="targetPoint" />
            <mxPoint as="offset" />
          </mxGeometry>
        </mxCell>
        <mxCell id="71T8n86O5jPkXO_XVHl_-25" value="" style="rounded=1;whiteSpace=wrap;html=1;" vertex="1" parent="1">
          <mxGeometry x="500" y="540" width="280" height="80" as="geometry" />
        </mxCell>
        <mxCell id="71T8n86O5jPkXO_XVHl_-26" value="" style="shape=image;verticalLabelPosition=bottom;labelBackgroundColor=default;verticalAlign=top;aspect=fixed;imageAspect=0;editableCssRules=.*;image=data:image/svg+xml,PHN2ZyB4bWxucz0iaHR0cDovL3d3dy53My5vcmcvMjAwMC9zdmciIHZpZXdCb3g9Ii0wLjAwMDAwMzgxNDY5NzI2NTYyNSAwIDIwMi44MDU4NjI0MjY3NTc4IDIyOC43NTQ2Mzg2NzE4NzUiIGhlaWdodD0iMjI4Ljc1NDYzODY3MTg3NSIgd2lkdGg9IjIwMi44MDU4NjI0MjY3NTc4IiB4bWw6c3BhY2U9InByZXNlcnZlIiBpZD0ic3ZnMiIgdmVyc2lvbj0iMS4xIj48bWV0YWRhdGEgaWQ9Im1ldGFkYXRhOCI+aW1hZ2Uvc3ZnK3htbDwvbWV0YWRhdGE+PGRlZnMgaWQ9ImRlZnM2Ij48Y2xpcFBhdGggaWQ9ImNsaXBQYXRoMTAwIiBjbGlwUGF0aFVuaXRzPSJ1c2VyU3BhY2VPblVzZSI+PHBhdGggaWQ9InBhdGg5OCIgZD0ibSAxMTguOTc4LDY2OS4wMTkgYyAtMTIuNjk1LC0xMi42ODkgLTEyLjY5NSwtMzMuMjc2IDAsLTQ1Ljk3NiB2IDAgYyA5LjgzNiwtOS44MjkgMjQuMzk2LC0xMi4wMDggMzYuMzYxLC02LjYgdiAwIC0xMS41MjQgaCAtMzUuMTkgbCAtOS41ODEsLTkuNTY3IGggNTQuMzM4IHYgNDIuNjY4IGwgLTguMjExLC04LjIxIGggLTMxLjAyNyBsIDM5LjI0MSwzOS4yNDQgYyAtNi4zNDMsNi4zMjEgLTE0LjY0OCw5LjQ4MiAtMjIuOTUxLDkuNDgzIHYgMCBjIC04LjMxOSwwIC0xNi42MzUsLTMuMTcyIC0yMi45OCwtOS41MTgiLz48L2NsaXBQYXRoPjxyYWRpYWxHcmFkaWVudCBpZD0icmFkaWFsR3JhZGllbnQxMTAiIHNwcmVhZE1ldGhvZD0icGFkIiBncmFkaWVudFRyYW5zZm9ybT0ibWF0cml4KDM1LjM0NTcxOCwwLDAsLTM1LjM0NTcxOCwxMzcuMTgzMTEsNjM2Ljk0NDM0KSIgZ3JhZGllbnRVbml0cz0idXNlclNwYWNlT25Vc2UiIHI9IjEiIGN5PSIwIiBjeD0iMCIgZnk9IjAiIGZ4PSIwIj48c3RvcCBpZD0ic3RvcDEwNiIgb2Zmc2V0PSIwIiBzdHlsZT0ic3RvcC1vcGFjaXR5OjE7c3RvcC1jb2xvcjojOTM5NTk4Ii8+PHN0b3AgaWQ9InN0b3AxMDgiIG9mZnNldD0iMSIgc3R5bGU9InN0b3Atb3BhY2l0eToxO3N0b3AtY29sb3I6Izc3Nzg3YiIvPjwvcmFkaWFsR3JhZGllbnQ+PGNsaXBQYXRoIGlkPSJjbGlwUGF0aDEyMCIgY2xpcFBhdGhVbml0cz0idXNlclNwYWNlT25Vc2UiPjxwYXRoIGlkPSJwYXRoMTE4IiBkPSJtIDE2NC45NTcsNzExLjcxMyB2IC00Mi42MTUgbCA4LjE2NCw4LjE3NCBoIDMxLjAyOCBsIC0zOS4yMjcsLTM5LjIyNiBjIDEyLjY5OCwtMTIuNjkzIDMzLjI3LC0xMi42ODIgNDUuOTYsMCB2IDAgYyAxMi42OTcsMTIuNjk3IDEyLjY5NywzMy4yODUgMCw0NS45NzQgdiAwIGMgLTkuODM2LDkuODMyIC0yNC4zOTksMTIuMDE5IC0zNi4zNjIsNi42MSB2IDAgMTEuNTE3IGggMzUuMjU3IGwgOS41MTUsOS41NjYgeiIvPjwvY2xpcFBhdGg+PHJhZGlhbEdyYWRpZW50IGlkPSJyYWRpYWxHcmFkaWVudDEzMCIgc3ByZWFkTWV0aG9kPSJwYWQiIGdyYWRpZW50VHJhbnNmb3JtPSJtYXRyaXgoMzUuMzUxMjExLDAsMCwtMzUuMzUxMjExLDE5Mi42NjM1Nyw2NzAuMTIxNTgpIiBncmFkaWVudFVuaXRzPSJ1c2VyU3BhY2VPblVzZSIgcj0iMSIgY3k9IjAiIGN4PSIwIiBmeT0iMCIgZng9IjAiPjxzdG9wIGlkPSJzdG9wMTI2IiBvZmZzZXQ9IjAiIHN0eWxlPSJzdG9wLW9wYWNpdHk6MTtzdG9wLWNvbG9yOiMzNWFhZDEiLz48c3RvcCBpZD0ic3RvcDEyOCIgb2Zmc2V0PSIxIiBzdHlsZT0ic3RvcC1vcGFjaXR5OjE7c3RvcC1jb2xvcjojMDA4ZWIwIi8+PC9yYWRpYWxHcmFkaWVudD48Y2xpcFBhdGggaWQ9ImNsaXBQYXRoMSIgY2xpcFBhdGhVbml0cz0idXNlclNwYWNlT25Vc2UiPjxwYXRoIHN0eWxlPSJzdHJva2Utd2lkdGg6MC45OTk5OTgiIGlkPSJwYXRoMSIgZD0ibSAtMTk0LjI4MzIsMjEyLjE5NjMgaCA2MTIgdiAtNzkyIGggLTYxMiB6Ii8+PC9jbGlwUGF0aD48Y2xpcFBhdGggaWQ9ImNsaXBQYXRoMiIgY2xpcFBhdGhVbml0cz0idXNlclNwYWNlT25Vc2UiPjxwYXRoIHN0eWxlPSJzdHJva2Utd2lkdGg6MC45OTk5OTgiIGlkPSJwYXRoMiIgZD0ibSAtMTI3LjE4ODUsMjE5Ljk3NjEgaCA2MTIgdiAtNzkyIGggLTYxMiB6Ii8+PC9jbGlwUGF0aD48Y2xpcFBhdGggaWQ9ImNsaXBQYXRoMyIgY2xpcFBhdGhVbml0cz0idXNlclNwYWNlT25Vc2UiPjxwYXRoIHN0eWxlPSJzdHJva2Utd2lkdGg6MC45OTk5OTgiIGlkPSJwYXRoMyIgZD0ibSAtMjE5LjExMTgsMjE4Ljc3NzggaCA2MTIgdiAtNzkyIGggLTYxMiB6Ii8+PC9jbGlwUGF0aD48Y2xpcFBhdGggaWQ9ImNsaXBQYXRoNCIgY2xpcFBhdGhVbml0cz0idXNlclNwYWNlT25Vc2UiPjxwYXRoIHN0eWxlPSJzdHJva2Utd2lkdGg6MC45OTk5OTgiIGlkPSJwYXRoNCIgZD0ibSAtMTEwLjc1MzksMjM2LjYwNSBoIDYxMiB2IC03OTIgaCAtNjEyIHoiLz48L2NsaXBQYXRoPjwvZGVmcz48ZyB0cmFuc2Zvcm09Im1hdHJpeCgxLjMzMzMzMzMsMCwwLC0xLjMzMzMzMzMsLTExOC41MDQ4Niw5NDguOTUwNjQpIiBpZD0iZzEwIj48ZyBpZD0iZzU0Ij48ZyBjbGlwLXBhdGg9InVybCgjY2xpcFBhdGg0KSIgdHJhbnNmb3JtPSJ0cmFuc2xhdGUoMTEwLjc1MzksNTU1LjM5NSkiIGlkPSJnNzgiPjxwYXRoIGlkPSJwYXRoODAiIHN0eWxlPSJmaWxsOiM3Nzc4N2I7ZmlsbC1vcGFjaXR5OjE7ZmlsbC1ydWxlOm5vbnplcm87c3Ryb2tlOm5vbmUiIGQ9Im0gMCwwIGMgLTQuMjg1LC0zLjA4IC0xMC4yOCwtMi42OTkgLTE0LjEzMiwxLjE1NSAtNC4yODUsNC4yODcgLTQuMjg1LDExLjIzOCAwLDE1LjUxNSA0LjI4MSw0LjI4OSAxMS4yMjIsNC4yODkgMTUuNTEzLDAgbCAzLjE5NCwzLjIwMiBjIC02LjA0Niw2LjA1NSAtMTUuODU5LDYuMDU1IC0yMS45MTUsMCAtNi4wNDcsLTYuMDUzIC02LjA0NywtMTUuODY1IDAsLTIxLjkxOCA0LjY5NSwtNC42ODcgMTEuNjMyLC01LjcyOCAxNy4zNCwtMy4xNSB2IC01LjQ5IGggLTE2Ljc4MSBsIC00LjU2MiwtNC41NjIgSCA0LjU2MSBWIDUuMTA3IGMgMCwwIC0xLjE5OSwtMS45NjQgLTMuMTgsLTMuOTUyIEMgMC45NSwwLjcyNSAwLjQ4LDAuMzQ3IDAsMCIvPjwvZz48ZyBjbGlwLXBhdGg9InVybCgjY2xpcFBhdGgzKSIgdHJhbnNmb3JtPSJ0cmFuc2xhdGUoMjE5LjExMTgsNTczLjIyMjIpIiBpZD0iZzgyIj48cGF0aCBpZD0icGF0aDg0IiBzdHlsZT0iZmlsbDojMDA4ZWIwO2ZpbGwtb3BhY2l0eToxO2ZpbGwtcnVsZTpub256ZXJvO3N0cm9rZTpub25lIiBkPSJtIDAsMCBjIDQuMjgsMy4wNjggMTAuMjgyLDIuNjg4IDE0LjEzLC0xLjE1NyA0LjI5MSwtNC4yODkgNC4yOTEsLTExLjIzNSAwLC0xNS41MjIgLTQuMjc5LC00LjI4MSAtMTEuMjI4LC00LjI4MSAtMTUuNTE0LDAgbCAtMy4xOTksLTMuMTk0IGMgNi4wNTYsLTYuMDU2IDE1Ljg2OSwtNi4wNTYgMjEuOTE2LDAgNi4wNTEsNi4wNDQgNi4wNTEsMTUuODU0IDAsMjEuOTExIEMgMTIuNjQzLDYuNzIyIDUuNzAzLDcuNzY2IDAsNS4xODYgdiA1LjQ5IGggMTYuNzc1IGwgNC41NjMsNC41NjIgSCAtNC41NiBWIDIuMDU0IC01LjEyMSBjIDAsMCAxLjE4OCwxLjk3OSAzLjE3NiwzLjk2NCBDIC0wLjk0OSwtMC43MzQgLTAuNDg2LC0wLjM1NCAwLDAiLz48L2c+PGcgY2xpcC1wYXRoPSJ1cmwoI2NsaXBQYXRoMikiIHRyYW5zZm9ybT0idHJhbnNsYXRlKDEyNy4xODg1LDU3Mi4wMjM5KSIgaWQ9Imc4NiI+PHBhdGggaWQ9InBhdGg4OCIgc3R5bGU9ImZpbGw6Izc3Nzg3YjtmaWxsLW9wYWNpdHk6MTtmaWxsLXJ1bGU6bm9uemVybztzdHJva2U6bm9uZSIgZD0ibSAwLDAgYyA0LjI1OCw0LjI0OCAxMS4xNyw0LjI0OCAxNS40MzUsMCAwLjkyOSwtMC45MzIgMS42MzMsLTEuOTk1IDIuMTU4LC0zLjEzOCBIIC0yLjE3NCBDIC0xLjY0OCwtMS45OTUgLTAuOTMxLC0wLjkzMiAwLDAgbSAwLC0xNS40MzggYyAtMi4xMzMsMi4xMzUgLTMuMTk3LDQuOTIzIC0zLjE5Nyw3LjcxOSBoIDI2LjQwNiBjIDAsMS41NDYgLTAuMjM0LDMuMDkxIC0wLjY5OCw0LjU4MSAtMC43MTMsMi4zMjkgLTEuOTkyLDQuNTI4IC0zLjgzOCw2LjM4MSAtNi4wNTIsNi4wNTUgLTE1Ljg2Myw2LjA1NSAtMjEuOTIxLDAgLTYuMDQ4LC02LjA2MyAtNi4wNDgsLTE1Ljg3MyAwLC0yMS45MTggNi4wNTgsLTYuMDU1IDE1Ljg2OSwtNi4wNTUgMjEuOTIxLDAgbCAtMy4yMzgsMy4yMzcgQyAxMS4xNywtMTkuNjk5IDQuMjU4LC0xOS42OTkgMCwtMTUuNDM4Ii8+PC9nPjxnIGNsaXAtcGF0aD0idXJsKCNjbGlwUGF0aDEpIiB0cmFuc2Zvcm09InRyYW5zbGF0ZSgxOTQuMjgzMiw1NzkuODAzNykiIGlkPSJnOTAiPjxwYXRoIGlkPSJwYXRoOTIiIHN0eWxlPSJmaWxsOiMwMDhlYjA7ZmlsbC1vcGFjaXR5OjE7ZmlsbC1ydWxlOm5vbnplcm87c3Ryb2tlOm5vbmUiIGQ9Ik0gMCwwIEMgLTUuNTk1LDAgLTEwLjQ3OSwtMi45NzQgLTEzLjIxMSwtNy40MTYgLTE1LjkzMiwtMi45NzQgLTIwLjgyLDAgLTI2LjQxNSwwIGMgLTMuMTg5LDAgLTYuMTQ4LC0wLjk3MiAtOC42MTQsLTIuNjIzIC0xLjg2LC0xLjI0MiAtMy40MTksLTIuODg1IC00LjU4NCwtNC43OTMgdiAtMjMuMDc1IGggNC41ODQgdiAyMS42NjUgYyAxLjk5OSwyLjU3NiA1LjEwOSw0LjIzNiA4LjYxNCw0LjIzNiA2LjAzLDAgMTAuOTEsLTQuODc5IDEwLjkxLC0xMC45MDkgdiAtMTQuOTkyIGggNC41OTIgdiAxNC45OTIgYyAwLDYuMDMgNC44ODgsMTAuOTA5IDEwLjkxMywxMC45MDkgNi4wMjQsMCAxMC45MDgsLTQuODc5IDEwLjkwOCwtMTAuOTA5IHYgLTE0Ljk5MiBoIDQuNTkxIHYgMTQuOTkyIEMgMTUuNDk5LC02LjkzNiA4LjU1NywwIDAsMCIvPjwvZz48L2c+PGcgaWQ9Imc5NCI+PGcgY2xpcC1wYXRoPSJ1cmwoI2NsaXBQYXRoMTAwKSIgaWQ9Imc5NiI+PGcgaWQ9ImcxMDIiPjxnIGlkPSJnMTA0Ij48cGF0aCBpZD0icGF0aDExMiIgc3R5bGU9ImZpbGw6dXJsKCNyYWRpYWxHcmFkaWVudDExMCk7c3Ryb2tlOm5vbmUiIGQ9Im0gMTE4Ljk3OCw2NjkuMDE5IGMgLTEyLjY5NSwtMTIuNjg5IC0xMi42OTUsLTMzLjI3NiAwLC00NS45NzYgdiAwIGMgOS44MzYsLTkuODI5IDI0LjM5NiwtMTIuMDA4IDM2LjM2MSwtNi42IHYgMCAtMTEuNTI0IGggLTM1LjE5IGwgLTkuNTgxLC05LjU2NyBoIDU0LjMzOCB2IDQyLjY2OCBsIC04LjIxMSwtOC4yMSBoIC0zMS4wMjcgbCAzOS4yNDEsMzkuMjQ0IGMgLTYuMzQzLDYuMzIxIC0xNC42NDgsOS40ODIgLTIyLjk1MSw5LjQ4MyB2IDAgYyAtOC4zMTksMCAtMTYuNjM1LC0zLjE3MiAtMjIuOTgsLTkuNTE4Ii8+PC9nPjwvZz48L2c+PC9nPjxnIGlkPSJnMTE0Ij48ZyBjbGlwLXBhdGg9InVybCgjY2xpcFBhdGgxMjApIiBpZD0iZzExNiI+PGcgaWQ9ImcxMjIiPjxnIGlkPSJnMTI0Ij48cGF0aCBpZD0icGF0aDEzMiIgc3R5bGU9ImZpbGw6dXJsKCNyYWRpYWxHcmFkaWVudDEzMCk7c3Ryb2tlOm5vbmUiIGQ9Im0gMTY0Ljk1Nyw3MTEuNzEzIHYgLTQyLjYxNSBsIDguMTY0LDguMTc0IGggMzEuMDI4IGwgLTM5LjIyNywtMzkuMjI2IGMgMTIuNjk4LC0xMi42OTMgMzMuMjcsLTEyLjY4MiA0NS45NiwwIHYgMCBjIDEyLjY5NywxMi42OTcgMTIuNjk3LDMzLjI4NSAwLDQ1Ljk3NCB2IDAgYyAtOS44MzYsOS44MzIgLTI0LjM5OSwxMi4wMTkgLTM2LjM2Miw2LjYxIHYgMCAxMS41MTcgaCAzNS4yNTcgbCA5LjUxNSw5LjU2NiB6Ii8+PC9nPjwvZz48L2c+PC9nPjwvZz48L3N2Zz4=;" vertex="1" parent="1">
          <mxGeometry x="510" y="550" width="53.19" height="60" as="geometry" />
        </mxCell>
        <mxCell id="71T8n86O5jPkXO_XVHl_-27" value="$$\begin{aligned}&amp;amp;\textnormal{Checkpoint Collection} \\ &amp;amp;\texttt{--take-simpoint-checkpoint}\\ &amp;amp;\texttt{--cpu-type=AtomicSimpleCPU} \end{aligned}$$" style="text;html=1;align=center;verticalAlign=middle;whiteSpace=wrap;rounded=0;" vertex="1" parent="1">
          <mxGeometry x="580" y="540" width="200" height="80" as="geometry" />
        </mxCell>
        <mxCell id="71T8n86O5jPkXO_XVHl_-34" value="&lt;div&gt;Checkpoints for&lt;/div&gt;&lt;div&gt;SimPoint of&lt;/div&gt;&lt;div&gt;interval&lt;i&gt;&amp;nbsp;s&lt;/i&gt;&lt;/div&gt;" style="edgeStyle=orthogonalEdgeStyle;rounded=0;orthogonalLoop=1;jettySize=auto;html=1;fontFamily=Latin Modern Roman;fontSize=14;fontColor=default;startArrow=oval;startFill=1;labelBackgroundColor=default;" edge="1" parent="1">
          <mxGeometry x="0.6351" relative="1" as="geometry">
            <mxPoint x="580" y="640" as="sourcePoint" />
            <mxPoint x="729.75" y="710" as="targetPoint" />
            <mxPoint as="offset" />
          </mxGeometry>
        </mxCell>
        <mxCell id="71T8n86O5jPkXO_XVHl_-35" value="" style="edgeStyle=orthogonalEdgeStyle;rounded=0;orthogonalLoop=1;jettySize=auto;html=1;fontFamily=Latin Modern Roman;fontSize=14;fontColor=default;" edge="1" parent="1">
          <mxGeometry x="-0.5044" y="1" relative="1" as="geometry">
            <mxPoint x="570" y="620" as="sourcePoint" />
            <mxPoint x="570" y="710" as="targetPoint" />
            <mxPoint as="offset" />
          </mxGeometry>
        </mxCell>
        <mxCell id="71T8n86O5jPkXO_XVHl_-36" value="" style="edgeStyle=orthogonalEdgeStyle;rounded=0;orthogonalLoop=1;jettySize=auto;html=1;exitX=0;exitY=1;exitDx=0;exitDy=0;fontFamily=Latin Modern Roman;fontSize=14;fontColor=default;" edge="1" parent="1">
          <mxGeometry x="-0.5044" y="1" relative="1" as="geometry">
            <mxPoint x="590" y="620" as="sourcePoint" />
            <mxPoint x="590" y="710" as="targetPoint" />
            <mxPoint as="offset" />
          </mxGeometry>
        </mxCell>
        <mxCell id="71T8n86O5jPkXO_XVHl_-31" value="&lt;div&gt;Checkpoints for SimPoints&lt;/div&gt;&lt;div&gt;of intervals &lt;i&gt;N&lt;/i&gt;,&lt;i&gt; &lt;/i&gt;2&lt;i&gt;N&lt;/i&gt;, ...,&lt;i&gt; kN&lt;/i&gt;&lt;/div&gt;" style="edgeStyle=orthogonalEdgeStyle;rounded=0;orthogonalLoop=1;jettySize=auto;html=1;exitX=0;exitY=1;exitDx=0;exitDy=0;fontFamily=Latin Modern Roman;fontSize=14;fontColor=default;" edge="1" parent="1" source="71T8n86O5jPkXO_XVHl_-27">
          <mxGeometry x="0.1162" relative="1" as="geometry">
            <mxPoint x="580" y="710" as="targetPoint" />
            <mxPoint as="offset" />
          </mxGeometry>
        </mxCell>
        <mxCell id="71T8n86O5jPkXO_XVHl_-38" value="" style="shape=image;verticalLabelPosition=bottom;labelBackgroundColor=default;verticalAlign=top;aspect=fixed;imageAspect=0;editableCssRules=.*;image=data:image/svg+xml,PHN2ZyB4bWxucz0iaHR0cDovL3d3dy53My5vcmcvMjAwMC9zdmciIHhtbG5zOnhsaW5rPSJodHRwOi8vd3d3LnczLm9yZy8xOTk5L3hsaW5rIiBoZWlnaHQ9IjEzNC42NjgwOTA4MjAzMTI1IiB3aWR0aD0iMTExLjE2MTM2MTY5NDMzNTk0IiBpZD0ic3ZnMiIgdmVyc2lvbj0iMS4wIiB2aWV3Qm94PSItMi4zODQxODU3OTEwMTU2MjVlLTcgMCAxMTEuMTYxMzYxNjk0MzM1OTQgMTM0LjY2ODA5MDgyMDMxMjUiPiYjeGE7ICA8bWV0YWRhdGEgaWQ9Im1ldGFkYXRhMzcxIj4mI3hhOyAgICAmI3hhOyAgICAgICYjeGE7ICAgICAgICBpbWFnZS9zdmcreG1sJiN4YTsgICAgICAgICYjeGE7ICAgICAgJiN4YTsgICAgJiN4YTsgIDwvbWV0YWRhdGE+JiN4YTsgICYjeGE7ICA8ZGVmcyBpZD0iZGVmczQiPiYjeGE7ICAgIDxsaW5lYXJHcmFkaWVudCBpZD0ibGluZWFyR3JhZGllbnQyNzk1Ij4mI3hhOyAgICAgIDxzdG9wIGlkPSJzdG9wMjc5NyIgb2Zmc2V0PSIwIiBzdHlsZT0ic3RvcC1jb2xvcjojYjhiOGI4O3N0b3Atb3BhY2l0eTowLjQ5ODAzOTIyOyIvPiYjeGE7ICAgICAgPHN0b3AgaWQ9InN0b3AyNzk5IiBvZmZzZXQ9IjEiIHN0eWxlPSJzdG9wLWNvbG9yOiM3ZjdmN2Y7c3RvcC1vcGFjaXR5OjA7Ii8+JiN4YTsgICAgPC9saW5lYXJHcmFkaWVudD4mI3hhOyAgICA8bGluZWFyR3JhZGllbnQgaWQ9ImxpbmVhckdyYWRpZW50Mjc4NyI+JiN4YTsgICAgICA8c3RvcCBpZD0ic3RvcDI3ODkiIG9mZnNldD0iMCIgc3R5bGU9InN0b3AtY29sb3I6IzdmN2Y3ZjtzdG9wLW9wYWNpdHk6MC41OyIvPiYjeGE7ICAgICAgPHN0b3AgaWQ9InN0b3AyNzkxIiBvZmZzZXQ9IjEiIHN0eWxlPSJzdG9wLWNvbG9yOiM3ZjdmN2Y7c3RvcC1vcGFjaXR5OjA7Ii8+JiN4YTsgICAgPC9saW5lYXJHcmFkaWVudD4mI3hhOyAgICA8bGluZWFyR3JhZGllbnQgaWQ9ImxpbmVhckdyYWRpZW50MzY3NiI+JiN4YTsgICAgICA8c3RvcCBpZD0ic3RvcDM2NzgiIG9mZnNldD0iMCIgc3R5bGU9InN0b3AtY29sb3I6I2IyYjJiMjtzdG9wLW9wYWNpdHk6MC41OyIvPiYjeGE7ICAgICAgPHN0b3AgaWQ9InN0b3AzNjgwIiBvZmZzZXQ9IjEiIHN0eWxlPSJzdG9wLWNvbG9yOiNiM2IzYjM7c3RvcC1vcGFjaXR5OjA7Ii8+JiN4YTsgICAgPC9saW5lYXJHcmFkaWVudD4mI3hhOyAgICA8bGluZWFyR3JhZGllbnQgaWQ9ImxpbmVhckdyYWRpZW50MzIzNiI+JiN4YTsgICAgICA8c3RvcCBpZD0ic3RvcDMyNDQiIG9mZnNldD0iMCIgc3R5bGU9InN0b3AtY29sb3I6I2Y0ZjRmNDtzdG9wLW9wYWNpdHk6MSIvPiYjeGE7ICAgICAgPHN0b3AgaWQ9InN0b3AzMjQwIiBvZmZzZXQ9IjEiIHN0eWxlPSJzdG9wLWNvbG9yOndoaXRlO3N0b3Atb3BhY2l0eToxIi8+JiN4YTsgICAgPC9saW5lYXJHcmFkaWVudD4mI3hhOyAgICA8bGluZWFyR3JhZGllbnQgaWQ9ImxpbmVhckdyYWRpZW50NDY3MSI+JiN4YTsgICAgICA8c3RvcCBpZD0ic3RvcDQ2NzMiIG9mZnNldD0iMCIgc3R5bGU9InN0b3AtY29sb3I6I2ZmZDQzYjtzdG9wLW9wYWNpdHk6MTsiLz4mI3hhOyAgICAgIDxzdG9wIGlkPSJzdG9wNDY3NSIgb2Zmc2V0PSIxIiBzdHlsZT0ic3RvcC1jb2xvcjojZmZlODczO3N0b3Atb3BhY2l0eToxIi8+JiN4YTsgICAgPC9saW5lYXJHcmFkaWVudD4mI3hhOyAgICA8bGluZWFyR3JhZGllbnQgaWQ9ImxpbmVhckdyYWRpZW50NDY4OSI+JiN4YTsgICAgICA8c3RvcCBpZD0ic3RvcDQ2OTEiIG9mZnNldD0iMCIgc3R5bGU9InN0b3AtY29sb3I6IzVhOWZkNDtzdG9wLW9wYWNpdHk6MTsiLz4mI3hhOyAgICAgIDxzdG9wIGlkPSJzdG9wNDY5MyIgb2Zmc2V0PSIxIiBzdHlsZT0ic3RvcC1jb2xvcjojMzA2OTk4O3N0b3Atb3BhY2l0eToxOyIvPiYjeGE7ICAgIDwvbGluZWFyR3JhZGllbnQ+JiN4YTsgICAgPGxpbmVhckdyYWRpZW50IGdyYWRpZW50VHJhbnNmb3JtPSJ0cmFuc2xhdGUoMTAwLjI3MDIsOTkuNjExMTYpIiBncmFkaWVudFVuaXRzPSJ1c2VyU3BhY2VPblVzZSIgeGxpbms6aHJlZj0iI2xpbmVhckdyYWRpZW50NDY3MSIgaWQ9ImxpbmVhckdyYWRpZW50Mjk4NyIgeTI9IjE0NC43NTcxNyIgeDI9Ii02NS4zMDg1MDIiIHkxPSIxNDQuNzU3MTciIHgxPSIyMjQuMjM5OTYiLz4mI3hhOyAgICA8bGluZWFyR3JhZGllbnQgZ3JhZGllbnRUcmFuc2Zvcm09InRyYW5zbGF0ZSgxMDAuMjcwMiw5OS42MTExNikiIGdyYWRpZW50VW5pdHM9InVzZXJTcGFjZU9uVXNlIiB4bGluazpocmVmPSIjbGluZWFyR3JhZGllbnQ0Njg5IiBpZD0ibGluZWFyR3JhZGllbnQyOTkwIiB5Mj0iNzYuMzEzMTMzIiB4Mj0iMjYuNjcwMjk4IiB5MT0iNzcuNDc1OTgzIiB4MT0iMTcyLjk0MjA4Ii8+JiN4YTsgICAgPGxpbmVhckdyYWRpZW50IHkyPSI3Ni4zMTMxMzMiIHgyPSIyNi42NzAyOTgiIHkxPSI3Ny40NzU5ODMiIHgxPSIxNzIuOTQyMDgiIGdyYWRpZW50VHJhbnNmb3JtPSJ0cmFuc2xhdGUoMTAwLjI3MDIsOTkuNjExMTYpIiBncmFkaWVudFVuaXRzPSJ1c2VyU3BhY2VPblVzZSIgaWQ9ImxpbmVhckdyYWRpZW50MjU4NyIgeGxpbms6aHJlZj0iI2xpbmVhckdyYWRpZW50NDY4OSIvPiYjeGE7ICAgIDxsaW5lYXJHcmFkaWVudCB5Mj0iMTQ0Ljc1NzE3IiB4Mj0iLTY1LjMwODUwMiIgeTE9IjE0NC43NTcxNyIgeDE9IjIyNC4yMzk5NiIgZ3JhZGllbnRUcmFuc2Zvcm09InRyYW5zbGF0ZSgxMDAuMjcwMiw5OS42MTExNikiIGdyYWRpZW50VW5pdHM9InVzZXJTcGFjZU9uVXNlIiBpZD0ibGluZWFyR3JhZGllbnQyNTg5IiB4bGluazpocmVmPSIjbGluZWFyR3JhZGllbnQ0NjcxIi8+JiN4YTsgICAgPGxpbmVhckdyYWRpZW50IHkyPSI3Ni4zMTMxMzMiIHgyPSIyNi42NzAyOTgiIHkxPSI3Ny40NzU5ODMiIHgxPSIxNzIuOTQyMDgiIGdyYWRpZW50VHJhbnNmb3JtPSJ0cmFuc2xhdGUoMTAwLjI3MDIsOTkuNjExMTYpIiBncmFkaWVudFVuaXRzPSJ1c2VyU3BhY2VPblVzZSIgaWQ9ImxpbmVhckdyYWRpZW50MjI0OCIgeGxpbms6aHJlZj0iI2xpbmVhckdyYWRpZW50NDY4OSIvPiYjeGE7ICAgIDxsaW5lYXJHcmFkaWVudCB5Mj0iMTQ0Ljc1NzE3IiB4Mj0iLTY1LjMwODUwMiIgeTE9IjE0NC43NTcxNyIgeDE9IjIyNC4yMzk5NiIgZ3JhZGllbnRUcmFuc2Zvcm09InRyYW5zbGF0ZSgxMDAuMjcwMiw5OS42MTExNikiIGdyYWRpZW50VW5pdHM9InVzZXJTcGFjZU9uVXNlIiBpZD0ibGluZWFyR3JhZGllbnQyMjUwIiB4bGluazpocmVmPSIjbGluZWFyR3JhZGllbnQ0NjcxIi8+JiN4YTsgICAgPGxpbmVhckdyYWRpZW50IHkyPSIxNDQuNzU3MTciIHgyPSItNjUuMzA4NTAyIiB5MT0iMTQ0Ljc1NzE3IiB4MT0iMjI0LjIzOTk2IiBncmFkaWVudFRyYW5zZm9ybT0ibWF0cml4KDAuNTYyNTQxLDAsMCwwLjU2Nzk3MiwtMTEuNTk3NCwtNy42MDk1NCkiIGdyYWRpZW50VW5pdHM9InVzZXJTcGFjZU9uVXNlIiBpZD0ibGluZWFyR3JhZGllbnQyMjU1IiB4bGluazpocmVmPSIjbGluZWFyR3JhZGllbnQ0NjcxIi8+JiN4YTsgICAgPGxpbmVhckdyYWRpZW50IHkyPSI3Ni4zMTMxMzMiIHgyPSIyNi42NzAyOTgiIHkxPSI3Ni4xNzYyMjQiIHgxPSIxNzIuOTQyMDgiIGdyYWRpZW50VHJhbnNmb3JtPSJtYXRyaXgoMC41NjI1NDEsMCwwLDAuNTY3OTcyLC0xMS41OTc0LC03LjYwOTU0KSIgZ3JhZGllbnRVbml0cz0idXNlclNwYWNlT25Vc2UiIGlkPSJsaW5lYXJHcmFkaWVudDIyNTgiIHhsaW5rOmhyZWY9IiNsaW5lYXJHcmFkaWVudDQ2ODkiLz4mI3hhOyAgICA8cmFkaWFsR3JhZGllbnQgZ3JhZGllbnRVbml0cz0idXNlclNwYWNlT25Vc2UiIGdyYWRpZW50VHJhbnNmb3JtPSJtYXRyaXgoMSwwLDAsMC4xNzc5NjYsMCwxMDguNzQzNCkiIHI9IjI5LjAzNjkxMyIgZnk9IjEzMi4yODU3NSIgZng9IjYxLjUxODg4MyIgY3k9IjEzMi4yODU3NSIgY3g9IjYxLjUxODg4MyIgaWQ9InJhZGlhbEdyYWRpZW50MjgwMSIgeGxpbms6aHJlZj0iI2xpbmVhckdyYWRpZW50Mjc5NSIvPiYjeGE7ICAgIDxsaW5lYXJHcmFkaWVudCB5Mj0iMTM3LjI3Mjk5IiB4Mj0iMTEyLjAzMTQ0IiB5MT0iMTkyLjM1MTc2IiB4MT0iMTUwLjk2MTExIiBncmFkaWVudFRyYW5zZm9ybT0ibWF0cml4KDAuNTYyNTQxLDAsMCwwLjU2Nzk3MiwtMTQuOTkxMTIsLTExLjcwMjM3MSkiIGdyYWRpZW50VW5pdHM9InVzZXJTcGFjZU9uVXNlIiBpZD0ibGluZWFyR3JhZGllbnQxNDc1IiB4bGluazpocmVmPSIjbGluZWFyR3JhZGllbnQ0NjcxIi8+JiN4YTsgICAgPGxpbmVhckdyYWRpZW50IHkyPSIxMTQuMzk3NjciIHgyPSIxMzUuNjY1MjUiIHkxPSIyMC42MDM3ODEiIHgxPSIyNi42NDg5MzciIGdyYWRpZW50VHJhbnNmb3JtPSJtYXRyaXgoMC41NjI1NDEsMCwwLDAuNTY3OTcyLC0xNC45OTExMiwtMTEuNzAyMzcxKSIgZ3JhZGllbnRVbml0cz0idXNlclNwYWNlT25Vc2UiIGlkPSJsaW5lYXJHcmFkaWVudDE0NzgiIHhsaW5rOmhyZWY9IiNsaW5lYXJHcmFkaWVudDQ2ODkiLz4mI3hhOyAgICA8cmFkaWFsR3JhZGllbnQgcj0iMjkuMDM2OTEzIiBmeT0iMTMyLjI4NTc1IiBmeD0iNjEuNTE4ODgzIiBjeT0iMTMyLjI4NTc1IiBjeD0iNjEuNTE4ODgzIiBncmFkaWVudFRyYW5zZm9ybT0ibWF0cml4KDEuNzQ5MDU2NWUtOCwtMC4yMzk5NDY5NiwxLjA1NDY2OCwzLjc5MTU0NTdlLTcsLTgzLjcwMDgsMTQyLjQ2MjAxKSIgZ3JhZGllbnRVbml0cz0idXNlclNwYWNlT25Vc2UiIGlkPSJyYWRpYWxHcmFkaWVudDE0ODAiIHhsaW5rOmhyZWY9IiNsaW5lYXJHcmFkaWVudDI3OTUiLz4mI3hhOyAgPC9kZWZzPiYjeGE7ICA8cGF0aCBpZD0icGF0aDE5NDgiIGQ9Ik0gNTQuOTE4Nzg1LDkuMTkyNzQyMWUtNCBDIDUwLjMzNTEzMiwwLjAyMjIxNzI3IDQ1Ljk1Nzg0NiwwLjQxMzEzNjk3IDQyLjEwNjI4NSwxLjA5NDY2OTMgMzAuNzYwMDY5LDMuMDk5MTczMSAyOC43MDAwMzYsNy4yOTQ3NzE0IDI4LjcwMDAzNSwxNS4wMzIxNjkgdiAxMC4yMTg3NSBoIDI2LjgxMjUgdiAzLjQwNjI1IGggLTI2LjgxMjUgLTEwLjA2MjUgYyAtNy43OTI0NTksMCAtMTQuNjE1NzU4OCw0LjY4MzcxNyAtMTYuNzQ5OTk5OCwxMy41OTM3NSAtMi40NjE4MTk5OCwxMC4yMTI5NjYgLTIuNTcxMDE1MDgsMTYuNTg2MDIzIDAsMjcuMjUgMS45MDU5MjgzLDcuOTM3ODUyIDYuNDU3NTQzMiwxMy41OTM3NDggMTQuMjQ5OTk5OCwxMy41OTM3NSBoIDkuMjE4NzUgdiAtMTIuMjUgYyAwLC04Ljg0OTkwMiA3LjY1NzE0NCwtMTYuNjU2MjQ4IDE2Ljc1LC0xNi42NTYyNSBoIDI2Ljc4MTI1IGMgNy40NTQ5NTEsMCAxMy40MDYyNTMsLTYuMTM4MTY0IDEzLjQwNjI1LC0xMy42MjUgdiAtMjUuNTMxMjUgYyAwLC03LjI2NjMzODYgLTYuMTI5OTgsLTEyLjcyNDc3NzEgLTEzLjQwNjI1LC0xMy45Mzc0OTk3IEMgNjQuMjgxNTQ4LDAuMzI3OTQzOTcgNTkuNTAyNDM4LC0wLjAyMDM3OTAzIDU0LjkxODc4NSw5LjE5Mjc0MjFlLTQgWiBtIC0xNC41LDguMjE4NzUwMTI1NzkgYyAyLjc2OTU0NywwIDUuMDMxMjUsMi4yOTg2NDU2IDUuMDMxMjUsNS4xMjQ5OTk2IC0yZS02LDIuODE2MzM2IC0yLjI2MTcwMyw1LjA5Mzc1IC01LjAzMTI1LDUuMDkzNzUgLTIuNzc5NDc2LC0xZS02IC01LjAzMTI1LC0yLjI3NzQxNSAtNS4wMzEyNSwtNS4wOTM3NSAtMTBlLTcsLTIuODI2MzUzIDIuMjUxNzc0LC01LjEyNDk5OTYgNS4wMzEyNSwtNS4xMjQ5OTk2IHoiIHN0eWxlPSJmaWxsOnVybCgjbGluZWFyR3JhZGllbnQxNDc4KTtmaWxsLW9wYWNpdHk6MSIvPiYjeGE7ICA8cGF0aCBpZD0icGF0aDE5NTAiIGQ9Im0gODUuNjM3NTM1LDI4LjY1NzE2OSB2IDExLjkwNjI1IGMgMCw5LjIzMDc1NSAtNy44MjU4OTUsMTYuOTk5OTk5IC0xNi43NSwxNyBoIC0yNi43ODEyNSBjIC03LjMzNTgzMywwIC0xMy40MDYyNDksNi4yNzg0ODMgLTEzLjQwNjI1LDEzLjYyNSB2IDI1LjUzMTI0NyBjIDAsNy4yNjYzNDQgNi4zMTg1ODgsMTEuNTQwMzI0IDEzLjQwNjI1LDEzLjYyNTAwNCA4LjQ4NzMzMSwyLjQ5NTYxIDE2LjYyNjIzNywyLjk0NjYzIDI2Ljc4MTI1LDAgNi43NTAxNTUsLTEuOTU0MzkgMTMuNDA2MjUzLC01Ljg4NzYxIDEzLjQwNjI1LC0xMy42MjUwMDQgViA4Ni41MDA5MTkgaCAtMjYuNzgxMjUgdiAtMy40MDYyNSBoIDI2Ljc4MTI1IDEzLjQwNjI1NCBjIDcuNzkyNDYxLDAgMTAuNjk2MjUxLC01LjQzNTQwOCAxMy40MDYyNDEsLTEzLjU5Mzc1IDIuNzk5MzMsLTguMzk4ODg2IDIuNjgwMjIsLTE2LjQ3NTc3NiAwLC0yNy4yNSAtMS45MjU3OCwtNy43NTc0NDEgLTUuNjAzODcsLTEzLjU5Mzc1IC0xMy40MDYyNDEsLTEzLjU5Mzc1IHogbSAtMTUuMDYyNSw2NC42NTYyNSBjIDIuNzc5NDc4LDNlLTYgNS4wMzEyNSwyLjI3NzQxNyA1LjAzMTI1LDUuMDkzNzQ3IC0yZS02LDIuODI2MzU0IC0yLjI1MTc3NSw1LjEyNTAwNCAtNS4wMzEyNSw1LjEyNTAwNCAtMi43Njk1NSwwIC01LjAzMTI1LC0yLjI5ODY1IC01LjAzMTI1LC01LjEyNTAwNCAyZS02LC0yLjgxNjMzIDIuMjYxNjk3LC01LjA5Mzc0NyA1LjAzMTI1LC01LjA5Mzc0NyB6IiBzdHlsZT0iZmlsbDp1cmwoI2xpbmVhckdyYWRpZW50MTQ3NSk7ZmlsbC1vcGFjaXR5OjEiLz4mI3hhOyAgPGVsbGlwc2Ugcnk9IjYuOTY3MzExOSIgcng9IjM1LjkzMDk3NyIgY3k9IjEyNy43MDA3OSIgY3g9IjU1LjgxNjc2MSIgaWQ9InBhdGgxODk0IiBzdHlsZT0ib3BhY2l0eTowLjQ0MzgyO2ZpbGw6dXJsKCNyYWRpYWxHcmFkaWVudDE0ODApO2ZpbGwtb3BhY2l0eToxO2ZpbGwtcnVsZTpub256ZXJvO3N0cm9rZTpub25lO3N0cm9rZS13aWR0aDoxNS40MTc0O3N0cm9rZS1taXRlcmxpbWl0OjQ7c3Ryb2tlLWRhc2hhcnJheTpub25lO3N0cm9rZS1vcGFjaXR5OjEiLz4mI3hhOzwvc3ZnPg==;" vertex="1" parent="1">
          <mxGeometry x="510" y="720" width="50" height="60.81" as="geometry" />
        </mxCell>
        <mxCell id="71T8n86O5jPkXO_XVHl_-40" value="" style="endArrow=none;html=1;rounded=0;fontFamily=Latin Modern Roman;fontSize=14;fontColor=default;dashed=1;" edge="1" parent="1">
          <mxGeometry width="50" height="50" relative="1" as="geometry">
            <mxPoint x="660" y="790" as="sourcePoint" />
            <mxPoint x="660" y="710" as="targetPoint" />
          </mxGeometry>
        </mxCell>
        <mxCell id="71T8n86O5jPkXO_XVHl_-41" value="&lt;div&gt;&lt;font style=&quot;font-size: 14px;&quot;&gt;Run all checkpoints made for&lt;/font&gt;&lt;/div&gt;&lt;div&gt;&lt;font style=&quot;font-size: 14px;&quot;&gt;each interval&lt;/font&gt;&lt;/div&gt;" style="text;html=1;align=left;verticalAlign=middle;whiteSpace=wrap;rounded=0;fontFamily=Latin Modern Roman;fontSize=11;spacing=2;spacingTop=-3;" vertex="1" parent="1">
          <mxGeometry x="566" y="710" width="94" height="80" as="geometry" />
        </mxCell>
        <mxCell id="71T8n86O5jPkXO_XVHl_-42" value="Run checkpoints made for &lt;i&gt;s&lt;/i&gt;&amp;nbsp;for each interval in&amp;nbsp;&lt;i&gt;N&lt;/i&gt;, 2&lt;i&gt;N&lt;/i&gt;, ...,&amp;nbsp;&lt;i&gt;kN&lt;/i&gt;" style="text;html=1;align=left;verticalAlign=middle;whiteSpace=wrap;rounded=0;fontFamily=Latin Modern Roman;fontSize=14;spacingTop=-3;" vertex="1" parent="1">
          <mxGeometry x="669.51" y="710" width="110.49" height="80" as="geometry" />
        </mxCell>
        <mxCell id="71T8n86O5jPkXO_XVHl_-43" value="$$\begin{aligned}&amp;amp;\textnormal{Checkpoint Execution and} \\ &amp;amp;\textnormal{Metric Collection} \\ &amp;amp;\texttt{--restore-simpoint-checkpoint}\\ &amp;amp;\texttt{--cpu-type=O3CPU} \end{aligned}$$" style="text;html=1;align=center;verticalAlign=middle;whiteSpace=wrap;rounded=0;" vertex="1" parent="1">
          <mxGeometry x="550" y="850" width="230" height="80" as="geometry" />
        </mxCell>
        <mxCell id="71T8n86O5jPkXO_XVHl_-44" value="" style="shape=image;verticalLabelPosition=bottom;labelBackgroundColor=default;verticalAlign=top;aspect=fixed;imageAspect=0;editableCssRules=.*;image=data:image/svg+xml,PHN2ZyB4bWxucz0iaHR0cDovL3d3dy53My5vcmcvMjAwMC9zdmciIHZpZXdCb3g9Ii0wLjAwMDAwMzgxNDY5NzI2NTYyNSAwIDIwMi44MDU4NjI0MjY3NTc4IDIyOC43NTQ2Mzg2NzE4NzUiIGhlaWdodD0iMjI4Ljc1NDYzODY3MTg3NSIgd2lkdGg9IjIwMi44MDU4NjI0MjY3NTc4IiB4bWw6c3BhY2U9InByZXNlcnZlIiBpZD0ic3ZnMiIgdmVyc2lvbj0iMS4xIj48bWV0YWRhdGEgaWQ9Im1ldGFkYXRhOCI+aW1hZ2Uvc3ZnK3htbDwvbWV0YWRhdGE+PGRlZnMgaWQ9ImRlZnM2Ij48Y2xpcFBhdGggaWQ9ImNsaXBQYXRoMTAwIiBjbGlwUGF0aFVuaXRzPSJ1c2VyU3BhY2VPblVzZSI+PHBhdGggaWQ9InBhdGg5OCIgZD0ibSAxMTguOTc4LDY2OS4wMTkgYyAtMTIuNjk1LC0xMi42ODkgLTEyLjY5NSwtMzMuMjc2IDAsLTQ1Ljk3NiB2IDAgYyA5LjgzNiwtOS44MjkgMjQuMzk2LC0xMi4wMDggMzYuMzYxLC02LjYgdiAwIC0xMS41MjQgaCAtMzUuMTkgbCAtOS41ODEsLTkuNTY3IGggNTQuMzM4IHYgNDIuNjY4IGwgLTguMjExLC04LjIxIGggLTMxLjAyNyBsIDM5LjI0MSwzOS4yNDQgYyAtNi4zNDMsNi4zMjEgLTE0LjY0OCw5LjQ4MiAtMjIuOTUxLDkuNDgzIHYgMCBjIC04LjMxOSwwIC0xNi42MzUsLTMuMTcyIC0yMi45OCwtOS41MTgiLz48L2NsaXBQYXRoPjxyYWRpYWxHcmFkaWVudCBpZD0icmFkaWFsR3JhZGllbnQxMTAiIHNwcmVhZE1ldGhvZD0icGFkIiBncmFkaWVudFRyYW5zZm9ybT0ibWF0cml4KDM1LjM0NTcxOCwwLDAsLTM1LjM0NTcxOCwxMzcuMTgzMTEsNjM2Ljk0NDM0KSIgZ3JhZGllbnRVbml0cz0idXNlclNwYWNlT25Vc2UiIHI9IjEiIGN5PSIwIiBjeD0iMCIgZnk9IjAiIGZ4PSIwIj48c3RvcCBpZD0ic3RvcDEwNiIgb2Zmc2V0PSIwIiBzdHlsZT0ic3RvcC1vcGFjaXR5OjE7c3RvcC1jb2xvcjojOTM5NTk4Ii8+PHN0b3AgaWQ9InN0b3AxMDgiIG9mZnNldD0iMSIgc3R5bGU9InN0b3Atb3BhY2l0eToxO3N0b3AtY29sb3I6Izc3Nzg3YiIvPjwvcmFkaWFsR3JhZGllbnQ+PGNsaXBQYXRoIGlkPSJjbGlwUGF0aDEyMCIgY2xpcFBhdGhVbml0cz0idXNlclNwYWNlT25Vc2UiPjxwYXRoIGlkPSJwYXRoMTE4IiBkPSJtIDE2NC45NTcsNzExLjcxMyB2IC00Mi42MTUgbCA4LjE2NCw4LjE3NCBoIDMxLjAyOCBsIC0zOS4yMjcsLTM5LjIyNiBjIDEyLjY5OCwtMTIuNjkzIDMzLjI3LC0xMi42ODIgNDUuOTYsMCB2IDAgYyAxMi42OTcsMTIuNjk3IDEyLjY5NywzMy4yODUgMCw0NS45NzQgdiAwIGMgLTkuODM2LDkuODMyIC0yNC4zOTksMTIuMDE5IC0zNi4zNjIsNi42MSB2IDAgMTEuNTE3IGggMzUuMjU3IGwgOS41MTUsOS41NjYgeiIvPjwvY2xpcFBhdGg+PHJhZGlhbEdyYWRpZW50IGlkPSJyYWRpYWxHcmFkaWVudDEzMCIgc3ByZWFkTWV0aG9kPSJwYWQiIGdyYWRpZW50VHJhbnNmb3JtPSJtYXRyaXgoMzUuMzUxMjExLDAsMCwtMzUuMzUxMjExLDE5Mi42NjM1Nyw2NzAuMTIxNTgpIiBncmFkaWVudFVuaXRzPSJ1c2VyU3BhY2VPblVzZSIgcj0iMSIgY3k9IjAiIGN4PSIwIiBmeT0iMCIgZng9IjAiPjxzdG9wIGlkPSJzdG9wMTI2IiBvZmZzZXQ9IjAiIHN0eWxlPSJzdG9wLW9wYWNpdHk6MTtzdG9wLWNvbG9yOiMzNWFhZDEiLz48c3RvcCBpZD0ic3RvcDEyOCIgb2Zmc2V0PSIxIiBzdHlsZT0ic3RvcC1vcGFjaXR5OjE7c3RvcC1jb2xvcjojMDA4ZWIwIi8+PC9yYWRpYWxHcmFkaWVudD48Y2xpcFBhdGggaWQ9ImNsaXBQYXRoMSIgY2xpcFBhdGhVbml0cz0idXNlclNwYWNlT25Vc2UiPjxwYXRoIHN0eWxlPSJzdHJva2Utd2lkdGg6MC45OTk5OTgiIGlkPSJwYXRoMSIgZD0ibSAtMTk0LjI4MzIsMjEyLjE5NjMgaCA2MTIgdiAtNzkyIGggLTYxMiB6Ii8+PC9jbGlwUGF0aD48Y2xpcFBhdGggaWQ9ImNsaXBQYXRoMiIgY2xpcFBhdGhVbml0cz0idXNlclNwYWNlT25Vc2UiPjxwYXRoIHN0eWxlPSJzdHJva2Utd2lkdGg6MC45OTk5OTgiIGlkPSJwYXRoMiIgZD0ibSAtMTI3LjE4ODUsMjE5Ljk3NjEgaCA2MTIgdiAtNzkyIGggLTYxMiB6Ii8+PC9jbGlwUGF0aD48Y2xpcFBhdGggaWQ9ImNsaXBQYXRoMyIgY2xpcFBhdGhVbml0cz0idXNlclNwYWNlT25Vc2UiPjxwYXRoIHN0eWxlPSJzdHJva2Utd2lkdGg6MC45OTk5OTgiIGlkPSJwYXRoMyIgZD0ibSAtMjE5LjExMTgsMjE4Ljc3NzggaCA2MTIgdiAtNzkyIGggLTYxMiB6Ii8+PC9jbGlwUGF0aD48Y2xpcFBhdGggaWQ9ImNsaXBQYXRoNCIgY2xpcFBhdGhVbml0cz0idXNlclNwYWNlT25Vc2UiPjxwYXRoIHN0eWxlPSJzdHJva2Utd2lkdGg6MC45OTk5OTgiIGlkPSJwYXRoNCIgZD0ibSAtMTEwLjc1MzksMjM2LjYwNSBoIDYxMiB2IC03OTIgaCAtNjEyIHoiLz48L2NsaXBQYXRoPjwvZGVmcz48ZyB0cmFuc2Zvcm09Im1hdHJpeCgxLjMzMzMzMzMsMCwwLC0xLjMzMzMzMzMsLTExOC41MDQ4Niw5NDguOTUwNjQpIiBpZD0iZzEwIj48ZyBpZD0iZzU0Ij48ZyBjbGlwLXBhdGg9InVybCgjY2xpcFBhdGg0KSIgdHJhbnNmb3JtPSJ0cmFuc2xhdGUoMTEwLjc1MzksNTU1LjM5NSkiIGlkPSJnNzgiPjxwYXRoIGlkPSJwYXRoODAiIHN0eWxlPSJmaWxsOiM3Nzc4N2I7ZmlsbC1vcGFjaXR5OjE7ZmlsbC1ydWxlOm5vbnplcm87c3Ryb2tlOm5vbmUiIGQ9Im0gMCwwIGMgLTQuMjg1LC0zLjA4IC0xMC4yOCwtMi42OTkgLTE0LjEzMiwxLjE1NSAtNC4yODUsNC4yODcgLTQuMjg1LDExLjIzOCAwLDE1LjUxNSA0LjI4MSw0LjI4OSAxMS4yMjIsNC4yODkgMTUuNTEzLDAgbCAzLjE5NCwzLjIwMiBjIC02LjA0Niw2LjA1NSAtMTUuODU5LDYuMDU1IC0yMS45MTUsMCAtNi4wNDcsLTYuMDUzIC02LjA0NywtMTUuODY1IDAsLTIxLjkxOCA0LjY5NSwtNC42ODcgMTEuNjMyLC01LjcyOCAxNy4zNCwtMy4xNSB2IC01LjQ5IGggLTE2Ljc4MSBsIC00LjU2MiwtNC41NjIgSCA0LjU2MSBWIDUuMTA3IGMgMCwwIC0xLjE5OSwtMS45NjQgLTMuMTgsLTMuOTUyIEMgMC45NSwwLjcyNSAwLjQ4LDAuMzQ3IDAsMCIvPjwvZz48ZyBjbGlwLXBhdGg9InVybCgjY2xpcFBhdGgzKSIgdHJhbnNmb3JtPSJ0cmFuc2xhdGUoMjE5LjExMTgsNTczLjIyMjIpIiBpZD0iZzgyIj48cGF0aCBpZD0icGF0aDg0IiBzdHlsZT0iZmlsbDojMDA4ZWIwO2ZpbGwtb3BhY2l0eToxO2ZpbGwtcnVsZTpub256ZXJvO3N0cm9rZTpub25lIiBkPSJtIDAsMCBjIDQuMjgsMy4wNjggMTAuMjgyLDIuNjg4IDE0LjEzLC0xLjE1NyA0LjI5MSwtNC4yODkgNC4yOTEsLTExLjIzNSAwLC0xNS41MjIgLTQuMjc5LC00LjI4MSAtMTEuMjI4LC00LjI4MSAtMTUuNTE0LDAgbCAtMy4xOTksLTMuMTk0IGMgNi4wNTYsLTYuMDU2IDE1Ljg2OSwtNi4wNTYgMjEuOTE2LDAgNi4wNTEsNi4wNDQgNi4wNTEsMTUuODU0IDAsMjEuOTExIEMgMTIuNjQzLDYuNzIyIDUuNzAzLDcuNzY2IDAsNS4xODYgdiA1LjQ5IGggMTYuNzc1IGwgNC41NjMsNC41NjIgSCAtNC41NiBWIDIuMDU0IC01LjEyMSBjIDAsMCAxLjE4OCwxLjk3OSAzLjE3NiwzLjk2NCBDIC0wLjk0OSwtMC43MzQgLTAuNDg2LC0wLjM1NCAwLDAiLz48L2c+PGcgY2xpcC1wYXRoPSJ1cmwoI2NsaXBQYXRoMikiIHRyYW5zZm9ybT0idHJhbnNsYXRlKDEyNy4xODg1LDU3Mi4wMjM5KSIgaWQ9Imc4NiI+PHBhdGggaWQ9InBhdGg4OCIgc3R5bGU9ImZpbGw6Izc3Nzg3YjtmaWxsLW9wYWNpdHk6MTtmaWxsLXJ1bGU6bm9uemVybztzdHJva2U6bm9uZSIgZD0ibSAwLDAgYyA0LjI1OCw0LjI0OCAxMS4xNyw0LjI0OCAxNS40MzUsMCAwLjkyOSwtMC45MzIgMS42MzMsLTEuOTk1IDIuMTU4LC0zLjEzOCBIIC0yLjE3NCBDIC0xLjY0OCwtMS45OTUgLTAuOTMxLC0wLjkzMiAwLDAgbSAwLC0xNS40MzggYyAtMi4xMzMsMi4xMzUgLTMuMTk3LDQuOTIzIC0zLjE5Nyw3LjcxOSBoIDI2LjQwNiBjIDAsMS41NDYgLTAuMjM0LDMuMDkxIC0wLjY5OCw0LjU4MSAtMC43MTMsMi4zMjkgLTEuOTkyLDQuNTI4IC0zLjgzOCw2LjM4MSAtNi4wNTIsNi4wNTUgLTE1Ljg2Myw2LjA1NSAtMjEuOTIxLDAgLTYuMDQ4LC02LjA2MyAtNi4wNDgsLTE1Ljg3MyAwLC0yMS45MTggNi4wNTgsLTYuMDU1IDE1Ljg2OSwtNi4wNTUgMjEuOTIxLDAgbCAtMy4yMzgsMy4yMzcgQyAxMS4xNywtMTkuNjk5IDQuMjU4LC0xOS42OTkgMCwtMTUuNDM4Ii8+PC9nPjxnIGNsaXAtcGF0aD0idXJsKCNjbGlwUGF0aDEpIiB0cmFuc2Zvcm09InRyYW5zbGF0ZSgxOTQuMjgzMiw1NzkuODAzNykiIGlkPSJnOTAiPjxwYXRoIGlkPSJwYXRoOTIiIHN0eWxlPSJmaWxsOiMwMDhlYjA7ZmlsbC1vcGFjaXR5OjE7ZmlsbC1ydWxlOm5vbnplcm87c3Ryb2tlOm5vbmUiIGQ9Ik0gMCwwIEMgLTUuNTk1LDAgLTEwLjQ3OSwtMi45NzQgLTEzLjIxMSwtNy40MTYgLTE1LjkzMiwtMi45NzQgLTIwLjgyLDAgLTI2LjQxNSwwIGMgLTMuMTg5LDAgLTYuMTQ4LC0wLjk3MiAtOC42MTQsLTIuNjIzIC0xLjg2LC0xLjI0MiAtMy40MTksLTIuODg1IC00LjU4NCwtNC43OTMgdiAtMjMuMDc1IGggNC41ODQgdiAyMS42NjUgYyAxLjk5OSwyLjU3NiA1LjEwOSw0LjIzNiA4LjYxNCw0LjIzNiA2LjAzLDAgMTAuOTEsLTQuODc5IDEwLjkxLC0xMC45MDkgdiAtMTQuOTkyIGggNC41OTIgdiAxNC45OTIgYyAwLDYuMDMgNC44ODgsMTAuOTA5IDEwLjkxMywxMC45MDkgNi4wMjQsMCAxMC45MDgsLTQuODc5IDEwLjkwOCwtMTAuOTA5IHYgLTE0Ljk5MiBoIDQuNTkxIHYgMTQuOTkyIEMgMTUuNDk5LC02LjkzNiA4LjU1NywwIDAsMCIvPjwvZz48L2c+PGcgaWQ9Imc5NCI+PGcgY2xpcC1wYXRoPSJ1cmwoI2NsaXBQYXRoMTAwKSIgaWQ9Imc5NiI+PGcgaWQ9ImcxMDIiPjxnIGlkPSJnMTA0Ij48cGF0aCBpZD0icGF0aDExMiIgc3R5bGU9ImZpbGw6dXJsKCNyYWRpYWxHcmFkaWVudDExMCk7c3Ryb2tlOm5vbmUiIGQ9Im0gMTE4Ljk3OCw2NjkuMDE5IGMgLTEyLjY5NSwtMTIuNjg5IC0xMi42OTUsLTMzLjI3NiAwLC00NS45NzYgdiAwIGMgOS44MzYsLTkuODI5IDI0LjM5NiwtMTIuMDA4IDM2LjM2MSwtNi42IHYgMCAtMTEuNTI0IGggLTM1LjE5IGwgLTkuNTgxLC05LjU2NyBoIDU0LjMzOCB2IDQyLjY2OCBsIC04LjIxMSwtOC4yMSBoIC0zMS4wMjcgbCAzOS4yNDEsMzkuMjQ0IGMgLTYuMzQzLDYuMzIxIC0xNC42NDgsOS40ODIgLTIyLjk1MSw5LjQ4MyB2IDAgYyAtOC4zMTksMCAtMTYuNjM1LC0zLjE3MiAtMjIuOTgsLTkuNTE4Ii8+PC9nPjwvZz48L2c+PC9nPjxnIGlkPSJnMTE0Ij48ZyBjbGlwLXBhdGg9InVybCgjY2xpcFBhdGgxMjApIiBpZD0iZzExNiI+PGcgaWQ9ImcxMjIiPjxnIGlkPSJnMTI0Ij48cGF0aCBpZD0icGF0aDEzMiIgc3R5bGU9ImZpbGw6dXJsKCNyYWRpYWxHcmFkaWVudDEzMCk7c3Ryb2tlOm5vbmUiIGQ9Im0gMTY0Ljk1Nyw3MTEuNzEzIHYgLTQyLjYxNSBsIDguMTY0LDguMTc0IGggMzEuMDI4IGwgLTM5LjIyNywtMzkuMjI2IGMgMTIuNjk4LC0xMi42OTMgMzMuMjcsLTEyLjY4MiA0NS45NiwwIHYgMCBjIDEyLjY5NywxMi42OTcgMTIuNjk3LDMzLjI4NSAwLDQ1Ljk3NCB2IDAgYyAtOS44MzYsOS44MzIgLTI0LjM5OSwxMi4wMTkgLTM2LjM2Miw2LjYxIHYgMCAxMS41MTcgaCAzNS4yNTcgbCA5LjUxNSw5LjU2NiB6Ii8+PC9nPjwvZz48L2c+PC9nPjwvZz48L3N2Zz4=;" vertex="1" parent="1">
          <mxGeometry x="510" y="867.44" width="40" height="45.12" as="geometry" />
        </mxCell>
        <mxCell id="71T8n86O5jPkXO_XVHl_-46" value="&lt;div&gt;Run checkpoints&lt;/div&gt;&lt;div&gt;using Gem5&lt;/div&gt;" style="edgeStyle=orthogonalEdgeStyle;rounded=0;orthogonalLoop=1;jettySize=auto;html=1;fontFamily=Latin Modern Roman;fontSize=14;fontColor=default;dashed=1;startArrow=classic;startFill=1;labelBackgroundColor=none;" edge="1" parent="1" source="71T8n86O5jPkXO_XVHl_-39" target="71T8n86O5jPkXO_XVHl_-45">
          <mxGeometry y="60" relative="1" as="geometry">
            <mxPoint x="650" y="800" as="sourcePoint" />
            <mxPoint x="639.66" y="870" as="targetPoint" />
            <mxPoint as="offset" />
          </mxGeometry>
        </mxCell>
        <mxCell id="71T8n86O5jPkXO_XVHl_-47" value="" style="shape=image;verticalLabelPosition=bottom;labelBackgroundColor=default;verticalAlign=top;aspect=fixed;imageAspect=0;editableCssRules=.*;image=data:image/svg+xml,PHN2ZyB4bWxucz0iaHR0cDovL3d3dy53My5vcmcvMjAwMC9zdmciIHhtbG5zOnhsaW5rPSJodHRwOi8vd3d3LnczLm9yZy8xOTk5L3hsaW5rIiBoZWlnaHQ9IjEzNC42NjgwOTA4MjAzMTI1IiB3aWR0aD0iMTExLjE2MTM2MTY5NDMzNTk0IiBpZD0ic3ZnMiIgdmVyc2lvbj0iMS4wIiB2aWV3Qm94PSItMi4zODQxODU3OTEwMTU2MjVlLTcgMCAxMTEuMTYxMzYxNjk0MzM1OTQgMTM0LjY2ODA5MDgyMDMxMjUiPiYjeGE7ICA8bWV0YWRhdGEgaWQ9Im1ldGFkYXRhMzcxIj4mI3hhOyAgICAmI3hhOyAgICAgICYjeGE7ICAgICAgICBpbWFnZS9zdmcreG1sJiN4YTsgICAgICAgICYjeGE7ICAgICAgJiN4YTsgICAgJiN4YTsgIDwvbWV0YWRhdGE+JiN4YTsgICYjeGE7ICA8ZGVmcyBpZD0iZGVmczQiPiYjeGE7ICAgIDxsaW5lYXJHcmFkaWVudCBpZD0ibGluZWFyR3JhZGllbnQyNzk1Ij4mI3hhOyAgICAgIDxzdG9wIGlkPSJzdG9wMjc5NyIgb2Zmc2V0PSIwIiBzdHlsZT0ic3RvcC1jb2xvcjojYjhiOGI4O3N0b3Atb3BhY2l0eTowLjQ5ODAzOTIyOyIvPiYjeGE7ICAgICAgPHN0b3AgaWQ9InN0b3AyNzk5IiBvZmZzZXQ9IjEiIHN0eWxlPSJzdG9wLWNvbG9yOiM3ZjdmN2Y7c3RvcC1vcGFjaXR5OjA7Ii8+JiN4YTsgICAgPC9saW5lYXJHcmFkaWVudD4mI3hhOyAgICA8bGluZWFyR3JhZGllbnQgaWQ9ImxpbmVhckdyYWRpZW50Mjc4NyI+JiN4YTsgICAgICA8c3RvcCBpZD0ic3RvcDI3ODkiIG9mZnNldD0iMCIgc3R5bGU9InN0b3AtY29sb3I6IzdmN2Y3ZjtzdG9wLW9wYWNpdHk6MC41OyIvPiYjeGE7ICAgICAgPHN0b3AgaWQ9InN0b3AyNzkxIiBvZmZzZXQ9IjEiIHN0eWxlPSJzdG9wLWNvbG9yOiM3ZjdmN2Y7c3RvcC1vcGFjaXR5OjA7Ii8+JiN4YTsgICAgPC9saW5lYXJHcmFkaWVudD4mI3hhOyAgICA8bGluZWFyR3JhZGllbnQgaWQ9ImxpbmVhckdyYWRpZW50MzY3NiI+JiN4YTsgICAgICA8c3RvcCBpZD0ic3RvcDM2NzgiIG9mZnNldD0iMCIgc3R5bGU9InN0b3AtY29sb3I6I2IyYjJiMjtzdG9wLW9wYWNpdHk6MC41OyIvPiYjeGE7ICAgICAgPHN0b3AgaWQ9InN0b3AzNjgwIiBvZmZzZXQ9IjEiIHN0eWxlPSJzdG9wLWNvbG9yOiNiM2IzYjM7c3RvcC1vcGFjaXR5OjA7Ii8+JiN4YTsgICAgPC9saW5lYXJHcmFkaWVudD4mI3hhOyAgICA8bGluZWFyR3JhZGllbnQgaWQ9ImxpbmVhckdyYWRpZW50MzIzNiI+JiN4YTsgICAgICA8c3RvcCBpZD0ic3RvcDMyNDQiIG9mZnNldD0iMCIgc3R5bGU9InN0b3AtY29sb3I6I2Y0ZjRmNDtzdG9wLW9wYWNpdHk6MSIvPiYjeGE7ICAgICAgPHN0b3AgaWQ9InN0b3AzMjQwIiBvZmZzZXQ9IjEiIHN0eWxlPSJzdG9wLWNvbG9yOndoaXRlO3N0b3Atb3BhY2l0eToxIi8+JiN4YTsgICAgPC9saW5lYXJHcmFkaWVudD4mI3hhOyAgICA8bGluZWFyR3JhZGllbnQgaWQ9ImxpbmVhckdyYWRpZW50NDY3MSI+JiN4YTsgICAgICA8c3RvcCBpZD0ic3RvcDQ2NzMiIG9mZnNldD0iMCIgc3R5bGU9InN0b3AtY29sb3I6I2ZmZDQzYjtzdG9wLW9wYWNpdHk6MTsiLz4mI3hhOyAgICAgIDxzdG9wIGlkPSJzdG9wNDY3NSIgb2Zmc2V0PSIxIiBzdHlsZT0ic3RvcC1jb2xvcjojZmZlODczO3N0b3Atb3BhY2l0eToxIi8+JiN4YTsgICAgPC9saW5lYXJHcmFkaWVudD4mI3hhOyAgICA8bGluZWFyR3JhZGllbnQgaWQ9ImxpbmVhckdyYWRpZW50NDY4OSI+JiN4YTsgICAgICA8c3RvcCBpZD0ic3RvcDQ2OTEiIG9mZnNldD0iMCIgc3R5bGU9InN0b3AtY29sb3I6IzVhOWZkNDtzdG9wLW9wYWNpdHk6MTsiLz4mI3hhOyAgICAgIDxzdG9wIGlkPSJzdG9wNDY5MyIgb2Zmc2V0PSIxIiBzdHlsZT0ic3RvcC1jb2xvcjojMzA2OTk4O3N0b3Atb3BhY2l0eToxOyIvPiYjeGE7ICAgIDwvbGluZWFyR3JhZGllbnQ+JiN4YTsgICAgPGxpbmVhckdyYWRpZW50IGdyYWRpZW50VHJhbnNmb3JtPSJ0cmFuc2xhdGUoMTAwLjI3MDIsOTkuNjExMTYpIiBncmFkaWVudFVuaXRzPSJ1c2VyU3BhY2VPblVzZSIgeGxpbms6aHJlZj0iI2xpbmVhckdyYWRpZW50NDY3MSIgaWQ9ImxpbmVhckdyYWRpZW50Mjk4NyIgeTI9IjE0NC43NTcxNyIgeDI9Ii02NS4zMDg1MDIiIHkxPSIxNDQuNzU3MTciIHgxPSIyMjQuMjM5OTYiLz4mI3hhOyAgICA8bGluZWFyR3JhZGllbnQgZ3JhZGllbnRUcmFuc2Zvcm09InRyYW5zbGF0ZSgxMDAuMjcwMiw5OS42MTExNikiIGdyYWRpZW50VW5pdHM9InVzZXJTcGFjZU9uVXNlIiB4bGluazpocmVmPSIjbGluZWFyR3JhZGllbnQ0Njg5IiBpZD0ibGluZWFyR3JhZGllbnQyOTkwIiB5Mj0iNzYuMzEzMTMzIiB4Mj0iMjYuNjcwMjk4IiB5MT0iNzcuNDc1OTgzIiB4MT0iMTcyLjk0MjA4Ii8+JiN4YTsgICAgPGxpbmVhckdyYWRpZW50IHkyPSI3Ni4zMTMxMzMiIHgyPSIyNi42NzAyOTgiIHkxPSI3Ny40NzU5ODMiIHgxPSIxNzIuOTQyMDgiIGdyYWRpZW50VHJhbnNmb3JtPSJ0cmFuc2xhdGUoMTAwLjI3MDIsOTkuNjExMTYpIiBncmFkaWVudFVuaXRzPSJ1c2VyU3BhY2VPblVzZSIgaWQ9ImxpbmVhckdyYWRpZW50MjU4NyIgeGxpbms6aHJlZj0iI2xpbmVhckdyYWRpZW50NDY4OSIvPiYjeGE7ICAgIDxsaW5lYXJHcmFkaWVudCB5Mj0iMTQ0Ljc1NzE3IiB4Mj0iLTY1LjMwODUwMiIgeTE9IjE0NC43NTcxNyIgeDE9IjIyNC4yMzk5NiIgZ3JhZGllbnRUcmFuc2Zvcm09InRyYW5zbGF0ZSgxMDAuMjcwMiw5OS42MTExNikiIGdyYWRpZW50VW5pdHM9InVzZXJTcGFjZU9uVXNlIiBpZD0ibGluZWFyR3JhZGllbnQyNTg5IiB4bGluazpocmVmPSIjbGluZWFyR3JhZGllbnQ0NjcxIi8+JiN4YTsgICAgPGxpbmVhckdyYWRpZW50IHkyPSI3Ni4zMTMxMzMiIHgyPSIyNi42NzAyOTgiIHkxPSI3Ny40NzU5ODMiIHgxPSIxNzIuOTQyMDgiIGdyYWRpZW50VHJhbnNmb3JtPSJ0cmFuc2xhdGUoMTAwLjI3MDIsOTkuNjExMTYpIiBncmFkaWVudFVuaXRzPSJ1c2VyU3BhY2VPblVzZSIgaWQ9ImxpbmVhckdyYWRpZW50MjI0OCIgeGxpbms6aHJlZj0iI2xpbmVhckdyYWRpZW50NDY4OSIvPiYjeGE7ICAgIDxsaW5lYXJHcmFkaWVudCB5Mj0iMTQ0Ljc1NzE3IiB4Mj0iLTY1LjMwODUwMiIgeTE9IjE0NC43NTcxNyIgeDE9IjIyNC4yMzk5NiIgZ3JhZGllbnRUcmFuc2Zvcm09InRyYW5zbGF0ZSgxMDAuMjcwMiw5OS42MTExNikiIGdyYWRpZW50VW5pdHM9InVzZXJTcGFjZU9uVXNlIiBpZD0ibGluZWFyR3JhZGllbnQyMjUwIiB4bGluazpocmVmPSIjbGluZWFyR3JhZGllbnQ0NjcxIi8+JiN4YTsgICAgPGxpbmVhckdyYWRpZW50IHkyPSIxNDQuNzU3MTciIHgyPSItNjUuMzA4NTAyIiB5MT0iMTQ0Ljc1NzE3IiB4MT0iMjI0LjIzOTk2IiBncmFkaWVudFRyYW5zZm9ybT0ibWF0cml4KDAuNTYyNTQxLDAsMCwwLjU2Nzk3MiwtMTEuNTk3NCwtNy42MDk1NCkiIGdyYWRpZW50VW5pdHM9InVzZXJTcGFjZU9uVXNlIiBpZD0ibGluZWFyR3JhZGllbnQyMjU1IiB4bGluazpocmVmPSIjbGluZWFyR3JhZGllbnQ0NjcxIi8+JiN4YTsgICAgPGxpbmVhckdyYWRpZW50IHkyPSI3Ni4zMTMxMzMiIHgyPSIyNi42NzAyOTgiIHkxPSI3Ni4xNzYyMjQiIHgxPSIxNzIuOTQyMDgiIGdyYWRpZW50VHJhbnNmb3JtPSJtYXRyaXgoMC41NjI1NDEsMCwwLDAuNTY3OTcyLC0xMS41OTc0LC03LjYwOTU0KSIgZ3JhZGllbnRVbml0cz0idXNlclNwYWNlT25Vc2UiIGlkPSJsaW5lYXJHcmFkaWVudDIyNTgiIHhsaW5rOmhyZWY9IiNsaW5lYXJHcmFkaWVudDQ2ODkiLz4mI3hhOyAgICA8cmFkaWFsR3JhZGllbnQgZ3JhZGllbnRVbml0cz0idXNlclNwYWNlT25Vc2UiIGdyYWRpZW50VHJhbnNmb3JtPSJtYXRyaXgoMSwwLDAsMC4xNzc5NjYsMCwxMDguNzQzNCkiIHI9IjI5LjAzNjkxMyIgZnk9IjEzMi4yODU3NSIgZng9IjYxLjUxODg4MyIgY3k9IjEzMi4yODU3NSIgY3g9IjYxLjUxODg4MyIgaWQ9InJhZGlhbEdyYWRpZW50MjgwMSIgeGxpbms6aHJlZj0iI2xpbmVhckdyYWRpZW50Mjc5NSIvPiYjeGE7ICAgIDxsaW5lYXJHcmFkaWVudCB5Mj0iMTM3LjI3Mjk5IiB4Mj0iMTEyLjAzMTQ0IiB5MT0iMTkyLjM1MTc2IiB4MT0iMTUwLjk2MTExIiBncmFkaWVudFRyYW5zZm9ybT0ibWF0cml4KDAuNTYyNTQxLDAsMCwwLjU2Nzk3MiwtMTQuOTkxMTIsLTExLjcwMjM3MSkiIGdyYWRpZW50VW5pdHM9InVzZXJTcGFjZU9uVXNlIiBpZD0ibGluZWFyR3JhZGllbnQxNDc1IiB4bGluazpocmVmPSIjbGluZWFyR3JhZGllbnQ0NjcxIi8+JiN4YTsgICAgPGxpbmVhckdyYWRpZW50IHkyPSIxMTQuMzk3NjciIHgyPSIxMzUuNjY1MjUiIHkxPSIyMC42MDM3ODEiIHgxPSIyNi42NDg5MzciIGdyYWRpZW50VHJhbnNmb3JtPSJtYXRyaXgoMC41NjI1NDEsMCwwLDAuNTY3OTcyLC0xNC45OTExMiwtMTEuNzAyMzcxKSIgZ3JhZGllbnRVbml0cz0idXNlclNwYWNlT25Vc2UiIGlkPSJsaW5lYXJHcmFkaWVudDE0NzgiIHhsaW5rOmhyZWY9IiNsaW5lYXJHcmFkaWVudDQ2ODkiLz4mI3hhOyAgICA8cmFkaWFsR3JhZGllbnQgcj0iMjkuMDM2OTEzIiBmeT0iMTMyLjI4NTc1IiBmeD0iNjEuNTE4ODgzIiBjeT0iMTMyLjI4NTc1IiBjeD0iNjEuNTE4ODgzIiBncmFkaWVudFRyYW5zZm9ybT0ibWF0cml4KDEuNzQ5MDU2NWUtOCwtMC4yMzk5NDY5NiwxLjA1NDY2OCwzLjc5MTU0NTdlLTcsLTgzLjcwMDgsMTQyLjQ2MjAxKSIgZ3JhZGllbnRVbml0cz0idXNlclNwYWNlT25Vc2UiIGlkPSJyYWRpYWxHcmFkaWVudDE0ODAiIHhsaW5rOmhyZWY9IiNsaW5lYXJHcmFkaWVudDI3OTUiLz4mI3hhOyAgPC9kZWZzPiYjeGE7ICA8cGF0aCBpZD0icGF0aDE5NDgiIGQ9Ik0gNTQuOTE4Nzg1LDkuMTkyNzQyMWUtNCBDIDUwLjMzNTEzMiwwLjAyMjIxNzI3IDQ1Ljk1Nzg0NiwwLjQxMzEzNjk3IDQyLjEwNjI4NSwxLjA5NDY2OTMgMzAuNzYwMDY5LDMuMDk5MTczMSAyOC43MDAwMzYsNy4yOTQ3NzE0IDI4LjcwMDAzNSwxNS4wMzIxNjkgdiAxMC4yMTg3NSBoIDI2LjgxMjUgdiAzLjQwNjI1IGggLTI2LjgxMjUgLTEwLjA2MjUgYyAtNy43OTI0NTksMCAtMTQuNjE1NzU4OCw0LjY4MzcxNyAtMTYuNzQ5OTk5OCwxMy41OTM3NSAtMi40NjE4MTk5OCwxMC4yMTI5NjYgLTIuNTcxMDE1MDgsMTYuNTg2MDIzIDAsMjcuMjUgMS45MDU5MjgzLDcuOTM3ODUyIDYuNDU3NTQzMiwxMy41OTM3NDggMTQuMjQ5OTk5OCwxMy41OTM3NSBoIDkuMjE4NzUgdiAtMTIuMjUgYyAwLC04Ljg0OTkwMiA3LjY1NzE0NCwtMTYuNjU2MjQ4IDE2Ljc1LC0xNi42NTYyNSBoIDI2Ljc4MTI1IGMgNy40NTQ5NTEsMCAxMy40MDYyNTMsLTYuMTM4MTY0IDEzLjQwNjI1LC0xMy42MjUgdiAtMjUuNTMxMjUgYyAwLC03LjI2NjMzODYgLTYuMTI5OTgsLTEyLjcyNDc3NzEgLTEzLjQwNjI1LC0xMy45Mzc0OTk3IEMgNjQuMjgxNTQ4LDAuMzI3OTQzOTcgNTkuNTAyNDM4LC0wLjAyMDM3OTAzIDU0LjkxODc4NSw5LjE5Mjc0MjFlLTQgWiBtIC0xNC41LDguMjE4NzUwMTI1NzkgYyAyLjc2OTU0NywwIDUuMDMxMjUsMi4yOTg2NDU2IDUuMDMxMjUsNS4xMjQ5OTk2IC0yZS02LDIuODE2MzM2IC0yLjI2MTcwMyw1LjA5Mzc1IC01LjAzMTI1LDUuMDkzNzUgLTIuNzc5NDc2LC0xZS02IC01LjAzMTI1LC0yLjI3NzQxNSAtNS4wMzEyNSwtNS4wOTM3NSAtMTBlLTcsLTIuODI2MzUzIDIuMjUxNzc0LC01LjEyNDk5OTYgNS4wMzEyNSwtNS4xMjQ5OTk2IHoiIHN0eWxlPSJmaWxsOnVybCgjbGluZWFyR3JhZGllbnQxNDc4KTtmaWxsLW9wYWNpdHk6MSIvPiYjeGE7ICA8cGF0aCBpZD0icGF0aDE5NTAiIGQ9Im0gODUuNjM3NTM1LDI4LjY1NzE2OSB2IDExLjkwNjI1IGMgMCw5LjIzMDc1NSAtNy44MjU4OTUsMTYuOTk5OTk5IC0xNi43NSwxNyBoIC0yNi43ODEyNSBjIC03LjMzNTgzMywwIC0xMy40MDYyNDksNi4yNzg0ODMgLTEzLjQwNjI1LDEzLjYyNSB2IDI1LjUzMTI0NyBjIDAsNy4yNjYzNDQgNi4zMTg1ODgsMTEuNTQwMzI0IDEzLjQwNjI1LDEzLjYyNTAwNCA4LjQ4NzMzMSwyLjQ5NTYxIDE2LjYyNjIzNywyLjk0NjYzIDI2Ljc4MTI1LDAgNi43NTAxNTUsLTEuOTU0MzkgMTMuNDA2MjUzLC01Ljg4NzYxIDEzLjQwNjI1LC0xMy42MjUwMDQgViA4Ni41MDA5MTkgaCAtMjYuNzgxMjUgdiAtMy40MDYyNSBoIDI2Ljc4MTI1IDEzLjQwNjI1NCBjIDcuNzkyNDYxLDAgMTAuNjk2MjUxLC01LjQzNTQwOCAxMy40MDYyNDEsLTEzLjU5Mzc1IDIuNzk5MzMsLTguMzk4ODg2IDIuNjgwMjIsLTE2LjQ3NTc3NiAwLC0yNy4yNSAtMS45MjU3OCwtNy43NTc0NDEgLTUuNjAzODcsLTEzLjU5Mzc1IC0xMy40MDYyNDEsLTEzLjU5Mzc1IHogbSAtMTUuMDYyNSw2NC42NTYyNSBjIDIuNzc5NDc4LDNlLTYgNS4wMzEyNSwyLjI3NzQxNyA1LjAzMTI1LDUuMDkzNzQ3IC0yZS02LDIuODI2MzU0IC0yLjI1MTc3NSw1LjEyNTAwNCAtNS4wMzEyNSw1LjEyNTAwNCAtMi43Njk1NSwwIC01LjAzMTI1LC0yLjI5ODY1IC01LjAzMTI1LC01LjEyNTAwNCAyZS02LC0yLjgxNjMzIDIuMjYxNjk3LC01LjA5Mzc0NyA1LjAzMTI1LC01LjA5Mzc0NyB6IiBzdHlsZT0iZmlsbDp1cmwoI2xpbmVhckdyYWRpZW50MTQ3NSk7ZmlsbC1vcGFjaXR5OjEiLz4mI3hhOyAgPGVsbGlwc2Ugcnk9IjYuOTY3MzExOSIgcng9IjM1LjkzMDk3NyIgY3k9IjEyNy43MDA3OSIgY3g9IjU1LjgxNjc2MSIgaWQ9InBhdGgxODk0IiBzdHlsZT0ib3BhY2l0eTowLjQ0MzgyO2ZpbGw6dXJsKCNyYWRpYWxHcmFkaWVudDE0ODApO2ZpbGwtb3BhY2l0eToxO2ZpbGwtcnVsZTpub256ZXJvO3N0cm9rZTpub25lO3N0cm9rZS13aWR0aDoxNS40MTc0O3N0cm9rZS1taXRlcmxpbWl0OjQ7c3Ryb2tlLWRhc2hhcnJheTpub25lO3N0cm9rZS1vcGFjaXR5OjEiLz4mI3hhOzwvc3ZnPg==;" vertex="1" parent="1">
          <mxGeometry x="510" y="269.59" width="50" height="60.81" as="geometry" />
        </mxCell>
        <mxCell id="71T8n86O5jPkXO_XVHl_-48" value="1" style="ellipse;aspect=fixed;rounded=0;align=center;verticalAlign=middle;fontFamily=Latin Modern Roman;fontSize=11;fillColor=#dae8fc;strokeColor=#6c8ebf;whiteSpace=wrap;html=1;spacing=0;spacingBottom=4;spacingRight=0;" vertex="1" parent="1">
          <mxGeometry x="470" y="150" width="20" height="20" as="geometry" />
        </mxCell>
        <mxCell id="71T8n86O5jPkXO_XVHl_-50" value="2" style="ellipse;aspect=fixed;rounded=0;align=center;verticalAlign=middle;fontFamily=Latin Modern Roman;fontSize=11;fillColor=#dae8fc;strokeColor=#6c8ebf;whiteSpace=wrap;html=1;spacing=0;spacingBottom=4;spacingRight=0;" vertex="1" parent="1">
          <mxGeometry x="470" y="289.99" width="20" height="20" as="geometry" />
        </mxCell>
        <mxCell id="71T8n86O5jPkXO_XVHl_-51" value="3" style="ellipse;aspect=fixed;rounded=0;align=center;verticalAlign=middle;fontFamily=Latin Modern Roman;fontSize=11;fillColor=#dae8fc;strokeColor=#6c8ebf;whiteSpace=wrap;html=1;spacing=0;spacingBottom=4;spacingRight=0;" vertex="1" parent="1">
          <mxGeometry x="470" y="430" width="20" height="20" as="geometry" />
        </mxCell>
        <mxCell id="71T8n86O5jPkXO_XVHl_-52" value="4" style="ellipse;aspect=fixed;rounded=0;align=center;verticalAlign=middle;fontFamily=Latin Modern Roman;fontSize=11;fillColor=#dae8fc;strokeColor=#6c8ebf;whiteSpace=wrap;html=1;spacing=0;spacingBottom=4;spacingRight=0;" vertex="1" parent="1">
          <mxGeometry x="470" y="570" width="20" height="20" as="geometry" />
        </mxCell>
        <mxCell id="71T8n86O5jPkXO_XVHl_-53" value="5" style="ellipse;aspect=fixed;rounded=0;align=center;verticalAlign=middle;fontFamily=Latin Modern Roman;fontSize=11;fillColor=#dae8fc;strokeColor=#6c8ebf;whiteSpace=wrap;html=1;spacing=0;spacingBottom=4;spacingRight=0;" vertex="1" parent="1">
          <mxGeometry x="470" y="740" width="20" height="20" as="geometry" />
        </mxCell>
        <mxCell id="71T8n86O5jPkXO_XVHl_-54" value="6" style="ellipse;aspect=fixed;rounded=0;align=center;verticalAlign=middle;fontFamily=Latin Modern Roman;fontSize=11;fillColor=#dae8fc;strokeColor=#6c8ebf;whiteSpace=wrap;html=1;spacing=0;spacingBottom=4;spacingRight=0;" vertex="1" parent="1">
          <mxGeometry x="470" y="880" width="20" height="20" as="geometry" />
        </mxCell>
      </root>
    </mxGraphModel>
  </diagram>
</mxfile>
